<svg width="24" height="24" viewBox="0 0 24 24" fill="none" xmlns="http://www.w3.org/2000/svg">
<path d="M12 9L18 9C19.6569 9 21 7.65685 21 6L21 3" stroke="black" stroke-width="2" stroke-linecap="round" stroke-linejoin="round"/>
<path d="M15 12L12 9L15 6" stroke="black" stroke-width="2" stroke-linecap="round" stroke-linejoin="round"/>
<path d="M7 22H18.25C20.3211 22 22 20.3211 22 18.25C22 16.1789 20.3211 14.5 18.25 14.5H11.5C10.3954 14.5 9.5 13.6046 9.5 12.5V5.75C9.5 3.67893 7.82107 2 5.75 2C3.67893 2 2 3.67893 2 5.75V17C2 19.7614 4.23858 22 7 22Z" fill="black"/>
</svg>
