<svg width="24" height="24" viewBox="0 0 24 24" fill="none" xmlns="http://www.w3.org/2000/svg">
<path fill-rule="evenodd" clip-rule="evenodd" d="M13.1697 7.29473L11.3395 5.46447C10.4018 4.52678 9.13001 4 7.80393 4H7C4.23858 4 2 6.23858 2 9V17C2 19.7614 4.23858 22 7 22H15C17.7614 22 20 19.7614 20 17V16.1961C20 14.87 19.4732 13.5982 18.5355 12.6605L16.7053 10.8303L13.7678 13.7678C12.7915 14.7441 11.2085 14.7441 10.2322 13.7678C9.25592 12.7915 9.25592 11.2085 10.2322 10.2322L13.1697 7.29473Z" fill="black"/>
<path d="M21 3L12 12" stroke="black" stroke-width="2" stroke-linecap="round" stroke-linejoin="round"/>
<path d="M21 9L21 3H15" stroke="black" stroke-width="2" stroke-linecap="round" stroke-linejoin="round"/>
</svg>
