<svg width="24" height="24" viewBox="0 0 24 24" fill="none" xmlns="http://www.w3.org/2000/svg">
<path fill-rule="evenodd" clip-rule="evenodd" d="M14.4538 3.61491C13.2113 2.29971 11 3.17908 11 4.9884L11 8.00008C6.02944 8.00008 2 12.0295 2 17.0001C2 17.6755 2.07457 18.3346 2.21631 18.9693C2.30012 19.3446 2.59171 19.6386 2.96631 19.7255C3.34091 19.8124 3.73215 19.6768 3.97262 19.3767C5.62362 17.3165 8.15774 16.0001 11 16.0001V19.0117C11 20.821 13.2113 21.7004 14.4538 20.3852L21.0781 13.3735C21.8064 12.6027 21.8064 11.3974 21.0781 10.6266L20.4091 11.2586L21.0781 10.6266L14.4538 3.61491Z" fill="black"/>
</svg>
