<svg width="24" height="24" viewBox="0 0 24 24" fill="none" xmlns="http://www.w3.org/2000/svg">
<path fill-rule="evenodd" clip-rule="evenodd" d="M17 22H7C4.23858 22 2 19.7614 2 17V7C2 4.23858 4.23858 2 7 2H7.70671C9.03279 2 10.3046 2.52678 11.2422 3.46447L12.5192 4.7414C11.2866 5.75002 10.5 7.28314 10.5 9V12C10.5 13.3807 11.6193 14.5 13 14.5C14.3807 14.5 15.5 13.3807 15.5 12V9C15.5 8.72386 15.7239 8.5 16 8.5H16.2778L20.5355 12.7578C21.4732 13.6954 22 14.9672 22 16.2933V17C22 19.7614 19.7614 22 17 22Z" fill="black"/>
<path d="M22 6H16C14.3431 6 13 7.34315 13 9V12" stroke="black" stroke-width="2" stroke-linecap="round" stroke-linejoin="round"/>
<path d="M19 3L22 6L19 9" stroke="black" stroke-width="2" stroke-linecap="round" stroke-linejoin="round"/>
</svg>
