<svg width="24" height="24" viewBox="0 0 24 24" fill="none" xmlns="http://www.w3.org/2000/svg">
<path fill-rule="evenodd" clip-rule="evenodd" d="M14.1211 6.34334L11.2422 3.46447C10.3046 2.52678 9.03279 2 7.70671 2H7C4.23858 2 2 4.23858 2 7V17C2 19.7614 4.23858 22 7 22H17C19.7614 22 22 19.7614 22 17V16.2933C22 14.9672 21.4732 13.6954 20.5355 12.7578L17.6567 9.87888L13.7678 13.7678C12.7915 14.7441 11.2085 14.7441 10.2322 13.7678C9.25592 12.7915 9.25592 11.2085 10.2322 10.2322L14.1211 6.34334Z" fill="black"/>
<path d="M21 3L12 12" stroke="black" stroke-width="2" stroke-linecap="round" stroke-linejoin="round"/>
<path d="M21 9L21 3H15" stroke="black" stroke-width="2" stroke-linecap="round" stroke-linejoin="round"/>
</svg>
