<svg xmlns="http://www.w3.org/2000/svg" width="24" height="24" fill="none" viewBox="0 0 24 24">
  <path fill="#000" fill-rule="evenodd" d="M17 22H7a5 5 0 0 1-5-5V7a5 5 0 0 1 5-5h.707a5 5 0 0 1 3.535 1.464l1.277 1.277A5.489 5.489 0 0 0 10.5 9v3a2.5 2.5 0 0 0 5 0V9a.5.5 0 0 1 .5-.5h.278l4.258 4.258A5 5 0 0 1 22 16.293V17a5 5 0 0 1-5 5Z" clip-rule="evenodd"/>
  <path stroke="currentColor" stroke-linecap="round" stroke-linejoin="round" stroke-width="2" d="m19 3 3 3m0 0-3 3m3-3h-6a3 3 0 0 0-3 3v3"/>
</svg>
