<svg width="72" height="72" viewBox="0 0 72 72" fill="none" xmlns="http://www.w3.org/2000/svg">
<path d="M20.7313 1.55265e-06C17.8334 -4.43668e-05 15.4417 -8.21235e-05 13.4934 0.1591C11.4699 0.324431 9.60975 0.679262 7.86254 1.56951C5.15301 2.95009 2.95009 5.15301 1.56951 7.86254C0.679262 9.60975 0.324431 11.4699 0.1591 13.4934C-8.21235e-05 15.4417 -4.43668e-05 17.8334 1.55265e-06 20.7313L3.26926e-06 21.6C3.26926e-06 23.5882 1.61178 25.2 3.6 25.2C5.58823 25.2 7.2 23.5882 7.2 21.6V20.88C7.2 17.7963 7.2028 15.7001 7.33519 14.0797C7.46414 12.5014 7.69787 11.6943 7.98476 11.1313C8.67504 9.7765 9.7765 8.67504 11.1313 7.98476C11.6943 7.69787 12.5014 7.46414 14.0797 7.33519C15.7001 7.2028 17.7963 7.2 20.88 7.2H21.6C23.5882 7.2 25.2 5.58823 25.2 3.6C25.2 1.61178 23.5882 3.26926e-06 21.6 3.26926e-06L20.7313 1.55265e-06Z" fill="url(#paint0_linear_1927_1909)"/>
<path d="M7.2 50.4C7.2 48.4118 5.58823 46.8 3.6 46.8C1.61178 46.8 3.26926e-06 48.4118 3.26926e-06 50.4L1.55265e-06 51.2687C-4.43668e-05 54.1666 -8.21235e-05 56.5583 0.1591 58.5066C0.324431 60.5301 0.679262 62.3903 1.56951 64.1375C2.95009 66.847 5.15301 69.0499 7.86254 70.4305C9.60975 71.3207 11.4699 71.6756 13.4934 71.8409C15.4416 72.0001 17.8331 72 20.7307 72H21.6C23.5882 72 25.2 70.3882 25.2 68.4C25.2 66.4118 23.5882 64.8 21.6 64.8H20.88C17.7963 64.8 15.7001 64.7972 14.0797 64.6648C12.5014 64.5359 11.6943 64.3021 11.1313 64.0152C9.7765 63.325 8.67504 62.2235 7.98476 60.8687C7.69787 60.3057 7.46414 59.4986 7.33519 57.9203C7.2028 56.2999 7.2 54.2037 7.2 51.12V50.4Z" fill="url(#paint1_linear_1927_1909)"/>
<path d="M57.9203 7.33519C56.2999 7.2028 54.2037 7.2 51.12 7.2H50.4C48.4118 7.2 46.8 5.58823 46.8 3.6C46.8 1.61178 48.4118 3.26926e-06 50.4 3.26926e-06L51.2687 1.55265e-06C54.1666 -4.39376e-05 56.5583 -8.16924e-05 58.5066 0.159101C60.5301 0.324431 62.3903 0.679263 64.1375 1.56951C66.847 2.95009 69.0499 5.15301 70.4305 7.86254C71.3207 9.60975 71.6756 11.4699 71.8409 13.4934C72.0001 15.4416 72 17.8332 72 20.7308V21.6C72 23.5882 70.3882 25.2 68.4 25.2C66.4118 25.2 64.8 23.5882 64.8 21.6V20.88C64.8 17.7963 64.7972 15.7001 64.6648 14.0797C64.5359 12.5014 64.3021 11.6943 64.0152 11.1313C63.325 9.7765 62.2235 8.67504 60.8687 7.98476C60.3057 7.69787 59.4986 7.46414 57.9203 7.33519Z" fill="url(#paint2_linear_1927_1909)"/>
<path d="M72 50.4C72 48.4118 70.3882 46.8 68.4 46.8C66.4118 46.8 64.8 48.4118 64.8 50.4V51.12C64.8 54.2037 64.7972 56.2999 64.6648 57.9203C64.5359 59.4986 64.3021 60.3057 64.0152 60.8687C63.325 62.2235 62.2235 63.325 60.8687 64.0152C60.3057 64.3021 59.4986 64.5359 57.9203 64.6648C56.2999 64.7972 54.2037 64.8 51.12 64.8H50.4C48.4118 64.8 46.8 66.4118 46.8 68.4C46.8 70.3882 48.4118 72 50.4 72H51.2689C54.1666 72 56.5584 72.0001 58.5066 71.8409C60.5301 71.6756 62.3903 71.3207 64.1375 70.4305C66.847 69.0499 69.0499 66.847 70.4305 64.1375C71.3207 62.3903 71.6756 60.5301 71.8409 58.5066C72.0001 56.5584 72 54.1668 72 51.2691V50.4Z" fill="url(#paint3_linear_1927_1909)"/>
<path d="M19.8 18C21.7882 18 23.4 19.6118 23.4 21.6V27C23.4 28.9882 21.7882 30.6 19.8 30.6C17.8118 30.6 16.2 28.9882 16.2 27V21.6C16.2 19.6118 17.8118 18 19.8 18Z" fill="url(#paint4_linear_1927_1909)"/>
<path d="M55.8 21.6C55.8 19.6118 54.1882 18 52.2 18C50.2118 18 48.6 19.6118 48.6 21.6V27C48.6 28.9882 50.2118 30.6 52.2 30.6C54.1882 30.6 55.8 28.9882 55.8 27V21.6Z" fill="url(#paint5_linear_1927_1909)"/>
<path d="M37.8 18C39.7882 18 41.4 19.6118 41.4 21.6V32.7604C41.4 37.6286 37.2682 41.7604 32.4 41.7604C30.4118 41.7604 28.8 40.1486 28.8 38.1604C28.8 36.1721 30.4118 34.5604 32.4 34.5604C33.2918 34.5604 34.2 33.6521 34.2 32.7604V21.6C34.2 19.6118 35.8118 18 37.8 18Z" fill="url(#paint6_linear_1927_1909)"/>
<path d="M26.6663 44.9742C25.2604 43.5684 22.981 43.5684 21.5751 44.9742C20.1692 46.3801 20.1692 48.6595 21.5751 50.0654C29.461 57.9513 42.1804 57.9513 50.0663 50.0654C51.4722 48.6595 51.4722 46.3801 50.0663 44.9742C48.6604 43.5684 46.381 43.5684 44.9751 44.9742C39.901 50.0484 31.7404 50.0484 26.6663 44.9742Z" fill="url(#paint7_linear_1927_1909)"/>
<defs>
<linearGradient id="paint0_linear_1927_1909" x1="36" y1="0" x2="36" y2="71.607" gradientUnits="userSpaceOnUse">
<stop stop-color="#FDB7FF"/>
<stop offset="0.260417" stop-color="#FC77FF"/>
<stop offset="0.71875" stop-color="#C03CFF"/>
</linearGradient>
<linearGradient id="paint1_linear_1927_1909" x1="36" y1="0" x2="36" y2="71.607" gradientUnits="userSpaceOnUse">
<stop stop-color="#FDB7FF"/>
<stop offset="0.260417" stop-color="#FC77FF"/>
<stop offset="0.71875" stop-color="#C03CFF"/>
</linearGradient>
<linearGradient id="paint2_linear_1927_1909" x1="36" y1="0" x2="36" y2="71.607" gradientUnits="userSpaceOnUse">
<stop stop-color="#FDB7FF"/>
<stop offset="0.260417" stop-color="#FC77FF"/>
<stop offset="0.71875" stop-color="#C03CFF"/>
</linearGradient>
<linearGradient id="paint3_linear_1927_1909" x1="36" y1="0" x2="36" y2="71.607" gradientUnits="userSpaceOnUse">
<stop stop-color="#FDB7FF"/>
<stop offset="0.260417" stop-color="#FC77FF"/>
<stop offset="0.71875" stop-color="#C03CFF"/>
</linearGradient>
<linearGradient id="paint4_linear_1927_1909" x1="36" y1="0" x2="36" y2="71.607" gradientUnits="userSpaceOnUse">
<stop stop-color="#FDB7FF"/>
<stop offset="0.260417" stop-color="#FC77FF"/>
<stop offset="0.71875" stop-color="#C03CFF"/>
</linearGradient>
<linearGradient id="paint5_linear_1927_1909" x1="36" y1="0" x2="36" y2="71.607" gradientUnits="userSpaceOnUse">
<stop stop-color="#FDB7FF"/>
<stop offset="0.260417" stop-color="#FC77FF"/>
<stop offset="0.71875" stop-color="#C03CFF"/>
</linearGradient>
<linearGradient id="paint6_linear_1927_1909" x1="36" y1="0" x2="36" y2="71.607" gradientUnits="userSpaceOnUse">
<stop stop-color="#FDB7FF"/>
<stop offset="0.260417" stop-color="#FC77FF"/>
<stop offset="0.71875" stop-color="#C03CFF"/>
</linearGradient>
<linearGradient id="paint7_linear_1927_1909" x1="36" y1="0" x2="36" y2="71.607" gradientUnits="userSpaceOnUse">
<stop stop-color="#FDB7FF"/>
<stop offset="0.260417" stop-color="#FC77FF"/>
<stop offset="0.71875" stop-color="#C03CFF"/>
</linearGradient>
</defs>
</svg>
