<svg width="80" height="60" viewBox="0 0 80 60" fill="none" xmlns="http://www.w3.org/2000/svg">
<path fill-rule="evenodd" clip-rule="evenodd" d="M12 0C5.37258 0 0 5.37258 0 12V15.5H80V12C80 5.37258 74.6274 0 68 0H12ZM80 17.5H0V48C0 54.6274 5.37258 60 12 60H68C74.6274 60 80 54.6274 80 48V17.5ZM10 8C10 9.10457 9.10457 10 8 10C6.89543 10 6 9.10457 6 8C6 6.89543 6.89543 6 8 6C9.10457 6 10 6.89543 10 8ZM16 8C16 9.10457 15.1046 10 14 10C12.8954 10 12 9.10457 12 8C12 6.89543 12.8954 6 14 6C15.1046 6 16 6.89543 16 8ZM20 10C21.1046 10 22 9.10457 22 8C22 6.89543 21.1046 6 20 6C18.8954 6 18 6.89543 18 8C18 9.10457 18.8954 10 20 10Z" fill="url(#paint0_linear_1932_2222)"/>
<path d="M34.0466 34.1484L24.7302 37.4883L34.0466 40.8047V43.7227L21.6598 38.8594V36.0938L34.0466 31.2188V34.1484ZM44.3047 27.5039H46.8945L37.6836 47.2266H35.0938L44.3047 27.5039ZM47.9417 34.1484V31.2188L60.3284 36.0938V38.8594L47.9417 43.7227V40.8047L57.2581 37.4883L47.9417 34.1484Z" fill="#22002B"/>
<defs>
<linearGradient id="paint0_linear_1932_2222" x1="40" y1="0" x2="40" y2="59.6725" gradientUnits="userSpaceOnUse">
<stop stop-color="#FDB7FF"/>
<stop offset="0.260417" stop-color="#FC77FF"/>
<stop offset="0.71875" stop-color="#C03CFF"/>
</linearGradient>
</defs>
</svg>
