<svg width="74" height="73" viewBox="0 0 74 73" fill="none" xmlns="http://www.w3.org/2000/svg">
<path d="M24.4922 58.5781C24.4922 58.875 24.1953 59.0234 23.75 59.0234C23.3047 59.1719 23.0078 58.875 23.0078 58.5781C23.0078 58.2812 23.3047 57.9844 23.75 57.9844C24.1953 57.9844 24.4922 58.2812 24.4922 58.5781ZM19.8906 57.8359C19.8906 58.1328 20.1875 58.5781 20.6328 58.5781C20.9297 58.7266 21.375 58.5781 21.5234 58.2812C21.5234 57.9844 21.375 57.6875 20.9297 57.5391C20.4844 57.3906 20.0391 57.5391 19.8906 57.8359ZM26.5703 57.6875C26.125 57.6875 25.8281 57.9844 25.8281 58.4297C25.8281 58.7266 26.2734 58.875 26.7188 58.7266C27.1641 58.5781 27.4609 58.4297 27.3125 58.1328C27.3125 57.8359 26.8672 57.5391 26.5703 57.6875ZM36.2188 0.6875C15.7344 0.6875 0 16.4219 0 36.9062C0 53.3828 10.2422 67.4844 25.0859 72.5312C27.0156 72.8281 27.6094 71.6406 27.6094 70.75C27.6094 69.7109 27.6094 64.6641 27.6094 61.5469C27.6094 61.5469 17.2188 63.7734 14.9922 57.0938C14.9922 57.0938 13.3594 52.7891 10.9844 51.75C10.9844 51.75 7.57031 49.375 11.1328 49.375C11.1328 49.375 14.8438 49.6719 16.9219 53.2344C20.1875 59.0234 25.5312 57.3906 27.7578 56.3516C28.0547 53.9766 28.9453 52.3438 30.1328 51.3047C21.8203 50.4141 13.3594 49.2266 13.3594 34.9766C13.3594 30.8203 14.5469 28.8906 16.9219 26.2188C16.4766 25.1797 15.2891 21.3203 17.3672 16.125C20.3359 15.2344 27.6094 20.1328 27.6094 20.1328C30.5781 19.2422 33.6953 18.9453 36.8125 18.9453C40.0781 18.9453 43.1953 19.2422 46.1641 20.1328C46.1641 20.1328 53.2891 15.0859 56.4062 16.125C58.4844 21.3203 57.1484 25.1797 56.8516 26.2188C59.2266 28.8906 60.7109 30.8203 60.7109 34.9766C60.7109 49.2266 51.9531 50.4141 43.6406 51.3047C44.9766 52.4922 46.1641 54.7188 46.1641 58.2812C46.1641 63.1797 46.0156 69.4141 46.0156 70.6016C46.0156 71.6406 46.7578 72.8281 48.6875 72.3828C63.5312 67.4844 73.625 53.3828 73.625 36.9062C73.625 16.4219 56.8516 0.6875 36.2188 0.6875ZM14.3984 51.8984C14.1016 52.0469 14.25 52.4922 14.3984 52.7891C14.6953 52.9375 14.9922 53.0859 15.2891 52.9375C15.4375 52.7891 15.4375 52.3438 15.1406 52.0469C14.8438 51.8984 14.5469 51.75 14.3984 51.8984ZM12.7656 50.7109C12.6172 51.0078 12.7656 51.1562 13.0625 51.3047C13.3594 51.4531 13.6562 51.4531 13.8047 51.1562C13.8047 51.0078 13.6562 50.8594 13.3594 50.7109C13.0625 50.5625 12.9141 50.5625 12.7656 50.7109ZM17.5156 56.0547C17.3672 56.2031 17.3672 56.6484 17.8125 56.9453C18.1094 57.2422 18.5547 57.3906 18.7031 57.0938C18.8516 56.9453 18.8516 56.5 18.5547 56.2031C18.2578 55.9062 17.8125 55.7578 17.5156 56.0547ZM15.8828 53.8281C15.5859 53.9766 15.5859 54.4219 15.8828 54.7188C16.1797 55.0156 16.4766 55.1641 16.7734 55.0156C16.9219 54.8672 16.9219 54.4219 16.7734 54.125C16.4766 53.8281 16.1797 53.6797 15.8828 53.8281Z" fill="url(#paint0_linear_1916_1993)"/>
<defs>
<linearGradient id="paint0_linear_1916_1993" x1="37" y1="-1" x2="37" y2="74.5852" gradientUnits="userSpaceOnUse">
<stop stop-color="#FDB7FF"/>
<stop offset="0.260417" stop-color="#FC77FF"/>
<stop offset="0.71875" stop-color="#C03CFF"/>
</linearGradient>
</defs>
</svg>
