<svg width="50" height="73" viewBox="0 0 50 73" fill="none" xmlns="http://www.w3.org/2000/svg">
<path fill-rule="evenodd" clip-rule="evenodd" d="M23.0529 0H13.0262C9.57141 0 6.25816 1.3724 3.81528 3.81528C1.3724 6.25816 0 9.57141 0 13.0262C0 16.4809 1.3724 19.7942 3.81528 22.2371C4.74921 23.171 5.81037 23.9485 6.95801 24.5526C5.81037 25.1568 4.74921 25.9342 3.81528 26.8682C1.3724 29.311 0 32.6243 0 36.0791C0 39.5338 1.3724 42.8471 3.81528 45.2899C4.74898 46.2236 5.80983 47.001 6.95713 47.605C5.80983 48.2091 4.74898 48.9864 3.81528 49.9201C1.3724 52.363 0 55.6763 0 59.131C0 62.5858 1.3724 65.899 3.81528 68.3419C6.25816 70.7848 9.57141 72.1572 13.0262 72.1572C16.4809 72.1572 19.7942 70.7848 22.2371 68.3419C24.6799 65.899 26.0523 62.5858 26.0523 59.131V49.1052V47.6052V47.6048V46.1048V44.3945C26.3092 44.7042 26.5813 45.0031 26.8682 45.2899C29.311 47.7328 32.6243 49.1052 36.0791 49.1052C39.5338 49.1052 42.8471 47.7328 45.2899 45.2899C47.7328 42.8471 49.1052 39.5338 49.1052 36.0791C49.1052 32.6243 47.7328 29.311 45.2899 26.8682C44.356 25.9342 43.2949 25.1568 42.1472 24.5526C43.2949 23.9485 44.356 23.171 45.2899 22.2371C47.7328 19.7942 49.1052 16.4809 49.1052 13.0262C49.1052 9.57141 47.7328 6.25816 45.2899 3.81528C42.8471 1.3724 39.5338 0 36.0791 0H26.0523H24.5529H24.5523H23.0529ZM27.7636 26.0523H26.0523V27.7636C26.3092 27.4539 26.5813 27.155 26.8682 26.8682C27.155 26.5813 27.4539 26.3092 27.7636 26.0523ZM13.0262 46.1048H23.0523V26.0529H13.0262C10.3671 26.0529 7.81687 27.1092 5.9366 28.9895C4.05633 30.8698 3 33.4199 3 36.0791C3 38.7382 4.05633 41.2884 5.9366 43.1686C7.80151 45.0335 10.3255 46.0879 12.961 46.105L13.0262 46.1048ZM5.9366 52.0414C7.80151 50.1765 10.3255 49.1222 12.961 49.1051L13.0262 49.1052H23.0523V59.131C23.0523 61.7901 21.996 64.3403 20.1157 66.2206C18.2355 68.1009 15.6853 69.1572 13.0262 69.1572C10.3671 69.1572 7.81687 68.1009 5.9366 66.2206C4.05633 64.3403 3 61.7901 3 59.131C3 56.4719 4.05633 53.9217 5.9366 52.0414ZM36.0791 3H26.0529V23.0523H36.0791C38.7382 23.0523 41.2884 21.996 43.1686 20.1157C45.0489 18.2355 46.1052 15.6853 46.1052 13.0262C46.1052 10.3671 45.0489 7.81687 43.1686 5.9366C41.2884 4.05633 38.7382 3 36.0791 3ZM5.9366 5.9366C7.81687 4.05633 10.3671 3 13.0262 3H23.0523V23.0523H13.0262C10.3671 23.0523 7.81687 21.996 5.9366 20.1157C4.05633 18.2355 3 15.6853 3 13.0262C3 10.3671 4.05633 7.81687 5.9366 5.9366ZM28.9895 28.9895C30.8698 27.1092 33.4199 26.0529 36.0791 26.0529C38.7382 26.0529 41.2884 27.1092 43.1686 28.9895C45.0489 30.8698 46.1052 33.4199 46.1052 36.0791C46.1052 38.7382 45.0489 41.2884 43.1686 43.1686C41.2884 45.0489 38.7382 46.1052 36.0791 46.1052C33.4199 46.1052 30.8698 45.0489 28.9895 43.1686C27.1092 41.2884 26.0529 38.7382 26.0529 36.0791C26.0529 33.4199 27.1092 30.8698 28.9895 28.9895Z" fill="url(#paint0_linear_1927_1897)"/>
<defs>
<linearGradient id="paint0_linear_1927_1897" x1="24.5526" y1="0" x2="24.5526" y2="71.7633" gradientUnits="userSpaceOnUse">
<stop stop-color="#FDB7FF"/>
<stop offset="0.260417" stop-color="#FC77FF"/>
<stop offset="0.71875" stop-color="#C03CFF"/>
</linearGradient>
</defs>
</svg>
