<svg width="76" height="76" viewBox="0 0 76 76" fill="none" xmlns="http://www.w3.org/2000/svg">
<rect x="3.6665" y="3.6665" width="68.6667" height="68.6667" fill="url(#paint0_linear_1928_2004)" stroke="#F68DFF" stroke-width="2"/>
<path fill-rule="evenodd" clip-rule="evenodd" d="M8 1H1V8H8V1ZM8 68H1V75H8V68ZM68 1H75V8H68V1ZM75 68H68V75H75V68Z" fill="#360043"/>
<path d="M1 1V0H0V1H1ZM8 1H9V0H8V1ZM1 8H0V9H1V8ZM8 8V9H9V8H8ZM1 68V67H0V68H1ZM8 68H9V67H8V68ZM1 75H0V76H1V75ZM8 75V76H9V75H8ZM75 1H76V0H75V1ZM68 1V0H67V1H68ZM75 8V9H76V8H75ZM68 8H67V9H68V8ZM68 68V67H67V68H68ZM75 68H76V67H75V68ZM68 75H67V76H68V75ZM75 75V76H76V75H75ZM1 2H8V0H1V2ZM2 8V1H0V8H2ZM8 7H1V9H8V7ZM7 1V8H9V1H7ZM1 69H8V67H1V69ZM2 75V68H0V75H2ZM8 74H1V76H8V74ZM7 68V75H9V68H7ZM75 0H68V2H75V0ZM76 8V1H74V8H76ZM68 9H75V7H68V9ZM67 1V8H69V1H67ZM68 69H75V67H68V69ZM69 75V68H67V75H69ZM75 74H68V76H75V74ZM74 68V75H76V68H74Z" fill="#F8ACFF"/>
<defs>
<linearGradient id="paint0_linear_1928_2004" x1="71.3332" y1="4.6665" x2="4.6665" y2="71.3332" gradientUnits="userSpaceOnUse">
<stop stop-color="#E338D2"/>
<stop offset="0.354167" stop-color="#B037FB"/>
<stop offset="1" stop-color="#28063D" stop-opacity="0.21"/>
</linearGradient>
</defs>
</svg>
