<svg width="115" height="64" viewBox="0 0 115 64" fill="none" xmlns="http://www.w3.org/2000/svg">
<path fill-rule="evenodd" clip-rule="evenodd" d="M32 64C49.6731 64 64 49.6731 64 32C64 14.3269 49.6731 0 32 0C14.3269 0 0 14.3269 0 32C0 49.6731 14.3269 64 32 64ZM32 61C48.0163 61 61 48.0163 61 32C61 15.9837 48.0163 3 32 3C15.9837 3 3 15.9837 3 32C3 48.0163 15.9837 61 32 61Z" fill="url(#paint0_linear_1931_2168)"/>
<path fill-rule="evenodd" clip-rule="evenodd" d="M83 64C100.673 64 115 49.6731 115 32C115 14.3269 100.673 0 83 0C65.3269 0 51 14.3269 51 32C51 49.6731 65.3269 64 83 64ZM73.4 26C73.4 24.0118 75.0118 22.4 77 22.4H80.6C81.2627 22.4 81.8 21.8627 81.8 21.2C81.8 20.5373 81.2627 20 80.6 20H77C73.6863 20 71 22.6863 71 26V38C71 41.3137 73.6863 44 77 44H89C92.3137 44 95 41.3137 95 38V34.4C95 33.7373 94.4627 33.2 93.8 33.2C93.1373 33.2 92.6 33.7373 92.6 34.4V38C92.6 39.9882 90.9882 41.6 89 41.6H77C75.0118 41.6 73.4 39.9882 73.4 38V26ZM86.6 20C85.9373 20 85.4 20.5373 85.4 21.2C85.4 21.8627 85.9373 22.4 86.6 22.4H90.9029L82.1515 31.1515C81.6828 31.6201 81.6828 32.3799 82.1515 32.8485C82.6201 33.3172 83.3799 33.3172 83.8485 32.8485L92.6 24.0971V28.4C92.6 29.0627 93.1373 29.6 93.8 29.6C94.4627 29.6 95 29.0627 95 28.4V21.2C95 20.5373 94.4627 20 93.8 20H86.6Z" fill="url(#paint1_linear_1931_2168)"/>
<path fill-rule="evenodd" clip-rule="evenodd" d="M20 20H30.8V22.4H22.4V41.6H41.6V33.2H44V44H20V20Z" fill="url(#paint2_linear_1931_2168)"/>
<path fill-rule="evenodd" clip-rule="evenodd" d="M34.3999 20H43.9999V29.6H41.5999V24.0971L31.9999 33.6971L30.3028 32L39.9028 22.4H34.3999V20Z" fill="url(#paint3_linear_1931_2168)"/>
<defs>
<linearGradient id="paint0_linear_1931_2168" x1="32" y1="0" x2="32" y2="63.6507" gradientUnits="userSpaceOnUse">
<stop stop-color="#FDB7FF"/>
<stop offset="0.260417" stop-color="#FC77FF"/>
<stop offset="0.71875" stop-color="#C03CFF"/>
</linearGradient>
<linearGradient id="paint1_linear_1931_2168" x1="83" y1="0" x2="83" y2="63.6507" gradientUnits="userSpaceOnUse">
<stop stop-color="#FDB7FF"/>
<stop offset="0.260417" stop-color="#FC77FF"/>
<stop offset="0.71875" stop-color="#C03CFF"/>
</linearGradient>
<linearGradient id="paint2_linear_1931_2168" x1="32" y1="20" x2="32" y2="43.869" gradientUnits="userSpaceOnUse">
<stop stop-color="#FDB7FF"/>
<stop offset="0.260417" stop-color="#FC77FF"/>
<stop offset="0.71875" stop-color="#C03CFF"/>
</linearGradient>
<linearGradient id="paint3_linear_1931_2168" x1="32" y1="20" x2="32" y2="43.869" gradientUnits="userSpaceOnUse">
<stop stop-color="#FDB7FF"/>
<stop offset="0.260417" stop-color="#FC77FF"/>
<stop offset="0.71875" stop-color="#C03CFF"/>
</linearGradient>
</defs>
</svg>
