<svg width="120" height="72" viewBox="0 0 120 72" fill="none" xmlns="http://www.w3.org/2000/svg">
<path d="M4.92822 40.3186C4.97055 42.0473 6.1341 43.7686 8.41898 45.0876L51.5444 69.9839C56.2004 72.6718 63.7492 72.6718 68.4052 69.9839L111.531 45.0876C113.816 43.7686 114.979 42.0473 115.021 40.3186V34.6626H4.92822V40.3186Z" fill="url(#paint0_linear_1928_1985)"/>
<path d="M4.92822 40.3186C4.97055 42.0473 6.1341 43.7686 8.41898 45.0876L51.5444 69.9839C56.2004 72.6718 63.7492 72.6718 68.4052 69.9839L111.531 45.0876C113.816 43.7686 114.979 42.0473 115.021 40.3186V34.6626H4.92822V40.3186Z" fill="black" fill-opacity="0.25"/>
<path fill-rule="evenodd" clip-rule="evenodd" d="M11.7746 39.181C7.42066 36.6675 7.42067 32.5923 11.7746 30.0788L52.1025 6.79747C56.4564 4.28395 63.5155 4.28395 67.8694 6.79747L108.197 30.0788C112.551 32.5923 112.551 36.6675 108.197 39.181L67.8694 62.4623C63.5155 64.9758 56.4564 64.9758 52.1025 62.4623L11.7746 39.181Z" fill="#360043"/>
<path fill-rule="evenodd" clip-rule="evenodd" d="M8.43037 29.763C3.7744 32.4509 3.7744 36.8088 8.43036 39.4967L51.5558 64.3931C56.2118 67.081 63.7606 67.081 68.4166 64.3931L111.542 39.4967C116.198 36.8088 116.198 32.4509 111.542 29.763L68.4166 4.8667C63.7606 2.17881 56.2118 2.17881 51.5558 4.86669L8.43037 29.763Z" fill="url(#paint1_linear_1928_1985)"/>
<path fill-rule="evenodd" clip-rule="evenodd" d="M13.6216 30.2531C9.4344 32.6703 9.4344 36.5894 13.6216 39.0067L52.4047 61.3962C56.5919 63.8135 63.3806 63.8135 67.5678 61.3962L106.351 39.0067C110.538 36.5894 110.538 32.6703 106.351 30.2531L67.5678 7.86354C63.3806 5.44629 56.5919 5.44629 52.4048 7.86353L13.6216 30.2531Z" fill="#23012C"/>
<path fill-rule="evenodd" clip-rule="evenodd" d="M33.5314 28.4491L37.701 26.042C38.7284 25.4489 40.3942 25.4489 41.4216 26.042C42.4491 26.6352 42.4491 27.5968 41.4216 28.19L37.3289 30.5527C35.7354 31.4727 34.6536 32.0989 33.8847 32.6217C33.1357 33.131 32.8394 33.4416 32.6967 33.6951C32.3533 34.3052 32.3533 34.9624 32.6967 35.5725C32.8394 35.826 33.1357 36.1365 33.8847 36.6459C34.6536 37.1687 35.7354 37.7949 37.3289 38.7149L52.9557 47.7362C54.5492 48.6561 55.6339 49.2807 56.5396 49.7245C57.4219 50.1569 57.9597 50.328 58.3989 50.4104C59.4557 50.6086 60.5941 50.6086 61.6509 50.4104C62.0901 50.328 62.628 50.1569 63.5102 49.7245C64.416 49.2807 65.5007 48.6561 67.0942 47.7362L82.7209 38.7149C84.3145 37.7949 85.3963 37.1687 86.1652 36.6459C86.9141 36.1365 87.2104 35.826 87.3531 35.5725C87.6965 34.9624 87.6965 34.3052 87.3531 33.6951C87.2104 33.4416 86.9141 33.131 86.1652 32.6217C85.3963 32.0989 84.3145 31.4727 82.7209 30.5527L78.6282 28.19C77.6008 27.5968 77.6008 26.6352 78.6282 26.0421C79.6556 25.4489 81.3214 25.4489 82.3489 26.042L86.5185 28.4492C88.016 29.3136 89.2519 30.0271 90.1764 30.6558C91.1367 31.3088 91.9146 31.9696 92.3574 32.7564C93.0442 33.9766 93.0442 35.291 92.3574 36.5112C91.9146 37.298 91.1367 37.9587 90.1764 38.6117C89.2519 39.2405 88.016 39.9539 86.5185 40.8184L70.738 49.9285C69.2405 50.793 68.0046 51.5065 66.9155 52.0403C65.7844 52.5946 64.6398 53.0437 63.2769 53.2993C61.1633 53.6958 58.8866 53.6958 56.773 53.2993C55.41 53.0437 54.2654 52.5946 53.1343 52.0403C52.0453 51.5065 50.8093 50.793 49.3119 49.9285L33.5314 40.8184C32.0339 39.9539 30.798 39.2405 29.8734 38.6117C28.9132 37.9587 28.1353 37.298 27.6924 36.5112C27.0057 35.291 27.0057 33.9766 27.6924 32.7564C28.1353 31.9696 28.9132 31.3088 29.8734 30.6558C30.798 30.0271 32.0339 29.3136 33.5314 28.4491ZM47.0026 22.8201C45.9752 22.227 45.9752 21.2653 47.0026 20.6722L58.1646 14.2284C59.192 13.6353 60.8578 13.6353 61.8852 14.2284L73.0472 20.6722C74.0747 21.2653 74.0747 22.227 73.0472 22.8201C72.0198 23.4133 70.354 23.4133 69.3266 22.8201L62.6558 18.9691L62.6558 34.6338C62.6558 35.4726 61.4779 36.1526 60.0249 36.1526C58.5719 36.1526 57.394 35.4726 57.394 34.6338L57.394 18.9691L50.7233 22.8201C49.6959 23.4133 48.0301 23.4133 47.0026 22.8201Z" fill="url(#paint2_linear_1928_1985)"/>
<defs>
<linearGradient id="paint0_linear_1928_1985" x1="59.9749" y1="22.8789" x2="59.9749" y2="71.8126" gradientUnits="userSpaceOnUse">
<stop stop-color="#FDB7FF"/>
<stop offset="0.260417" stop-color="#FC77FF"/>
<stop offset="0.71875" stop-color="#C03CFF"/>
</linearGradient>
<linearGradient id="paint1_linear_1928_1985" x1="29.9931" y1="17.3149" x2="59.9823" y2="69.2622" gradientUnits="userSpaceOnUse">
<stop stop-color="#FDB7FF"/>
<stop offset="0.260417" stop-color="#FC77FF"/>
<stop offset="0.71875" stop-color="#C03CFF"/>
</linearGradient>
<linearGradient id="paint2_linear_1928_1985" x1="41.4216" y1="23.8941" x2="60.0225" y2="56.1145" gradientUnits="userSpaceOnUse">
<stop stop-color="#FDB7FF"/>
<stop offset="0.260417" stop-color="#FC77FF"/>
<stop offset="0.71875" stop-color="#C03CFF"/>
</linearGradient>
</defs>
</svg>
