<svg width="24" height="24" viewBox="0 0 24 24" fill="none" xmlns="http://www.w3.org/2000/svg">
<path opacity="0.4" fill-rule="evenodd" clip-rule="evenodd" d="M13.0352 7.42929C13.6292 6.83526 13.9262 6.53825 14.0375 6.19576C14.1354 5.89449 14.1354 5.56997 14.0375 5.26871C13.9262 4.92621 13.6292 4.6292 13.0352 4.03518L11.7029 2.70294C11.4435 2.44352 11.3138 2.3138 11.1624 2.22104C11.0282 2.1388 10.8819 2.07819 10.7288 2.04145C10.5562 2 10.3728 2 10.0059 2H8.4C6.15979 2 5.03969 2 4.18404 2.43597C3.43139 2.81947 2.81947 3.43139 2.43597 4.18404C2 5.03969 2 6.15979 2 8.4V15.6C2 17.8402 2 18.9603 2.43597 19.816C2.81947 20.5686 3.43139 21.1805 4.18404 21.564C5.03969 22 6.15979 22 8.4 22H15.6C17.8402 22 18.9603 22 19.816 21.564C20.5686 21.1805 21.1805 20.5686 21.564 19.816C22 18.9603 22 17.8402 22 15.6V13.9941C22 13.6272 22 13.4438 21.9586 13.2712C21.9218 13.1181 21.8612 12.9718 21.779 12.8376C21.6862 12.6862 21.5565 12.5565 21.2971 12.2971L19.9648 10.9648C19.3708 10.3708 19.0738 10.0738 18.7313 9.9625C18.43 9.86462 18.1055 9.86462 17.8042 9.9625C17.4617 10.0738 17.1647 10.3708 16.5707 10.9648L13.7678 13.7678C12.7915 14.7441 11.2085 14.7441 10.2322 13.7678C9.25592 12.7915 9.25592 11.2085 10.2322 10.2322L13.0352 7.42929Z" fill="black"/>
<path d="M21 9L21 3H15" stroke="black" stroke-width="2" stroke-linecap="round" stroke-linejoin="round"/>
<path d="M21 3L12 12" stroke="black" stroke-width="2" stroke-linecap="round" stroke-linejoin="round"/>
</svg>
