<svg xmlns="http://www.w3.org/2000/svg" width="24" height="24" fill="none" viewBox="0 0 24 24">
  <path fill="#000" d="m21 12 .693.72v-1.44L21 12Zm-9 8.66h-1l1.693.72-.693-.72Zm0-17.32.693-.72L11 3.34h1Zm0 5.722-.124.992L13 9.062h-1Zm-8.808 9.69-.976.217 1.757.408-.78-.626ZM12 15.048h1l-.901-.995-.099.995Zm8.307-3.77-9 8.66 1.386 1.442 9-8.66-1.386-1.442Zm-9-7.219 9 8.66 1.386-1.44-9-8.66-1.386 1.44ZM13 9.062V3.34h-2v5.722h2Zm-.876-.992A9.08 9.08 0 0 0 11 8v2c.297 0 .59.018.876.054l.248-1.984ZM11 8a9 9 0 0 0-9 9h2a7 7 0 0 1 7-7V8Zm-9 9c0 .675.075 1.334.216 1.97l1.952-.437A7.027 7.027 0 0 1 4 17H2Zm1.973 2.377A8.981 8.981 0 0 1 11 16v-2a10.981 10.981 0 0 0-8.588 4.126l1.56 1.25ZM11 16c.305 0 .605.015.901.044l.198-1.99A11.123 11.123 0 0 0 11 14v2Zm2 4.66v-5.61h-2v5.61h2Z"/>
</svg>
