<svg width="394" height="415" viewBox="0 0 394 415" fill="none" xmlns="http://www.w3.org/2000/svg">
<g clip-path="url(#clip0_1797_9400)">
<rect x="5" y="5" width="384" height="384" rx="64" fill="url(#paint0_linear_1797_9400)"/>
<circle cx="197" cy="197" r="175" stroke="white" stroke-opacity="0.3" stroke-width="2"/>
<g opacity="0.7">
<path d="M133 53H129.8C102.917 53 89.4762 53 79.2085 58.2317C70.1767 62.8336 62.8336 70.1767 58.2317 79.2085C53 89.4762 53 102.917 53 129.8V133" stroke="black" stroke-width="32" stroke-linecap="round" stroke-linejoin="round"/>
<path d="M133 341H129.8C102.917 341 89.4762 341 79.2085 335.768C70.1767 331.166 62.8336 323.823 58.2317 314.792C53 304.524 53 291.083 53 264.2V261" stroke="black" stroke-width="32" stroke-linecap="round" stroke-linejoin="round"/>
<path d="M341 133V129.8C341 102.917 341 89.4762 335.768 79.2085C331.166 70.1767 323.823 62.8336 314.792 58.2317C304.524 53 291.083 53 264.2 53L261 53" stroke="black" stroke-width="32" stroke-linecap="round" stroke-linejoin="round"/>
<path d="M341 261V264.2C341 291.083 341 304.524 335.768 314.792C331.166 323.823 323.823 331.166 314.792 335.768C304.524 341 291.083 341 264.2 341H261" stroke="black" stroke-width="32" stroke-linecap="round" stroke-linejoin="round"/>
<path d="M125 133V157" stroke="black" stroke-width="32" stroke-linecap="round" stroke-linejoin="round"/>
<path d="M269 133V157" stroke="black" stroke-width="32" stroke-linecap="round" stroke-linejoin="round"/>
<path d="M181 206.602C193.8 206.602 205 195.402 205 182.602V133" stroke="black" stroke-width="32" stroke-linecap="round" stroke-linejoin="round"/>
<path d="M248.203 248.199C219.403 276.999 173.003 276.999 144.203 248.199" stroke="black" stroke-width="32" stroke-linecap="round" stroke-linejoin="round"/>
</g>
<rect x="37" y="37" width="320" height="320" rx="64" stroke="#F3A4F4" stroke-width="2" stroke-dasharray="6 6"/>
<path d="M5 5L389 389M389 5L5 389" stroke="white" stroke-opacity="0.25" stroke-width="2"/>
<g opacity="0.4">
<path d="M293 5V389M101 5V389M149 5V389M245 5V389" stroke="white" stroke-width="2"/>
<path d="M5 101H389M5 293H389M5 245H389M5 149H389" stroke="white" stroke-width="2"/>
</g>
<rect x="69" y="69" width="256" height="256" rx="32" stroke="#F3A4F4" stroke-width="2" stroke-dasharray="6 6"/>
</g>
<rect x="6" y="6" width="382" height="382" stroke="#379FFF" stroke-width="2"/>
<rect x="0.5" y="0.5" width="9" height="9" fill="white" stroke="#379FFF"/>
<rect x="384.5" y="0.5" width="9" height="9" fill="white" stroke="#379FFF"/>
<rect x="384.5" y="384.5" width="9" height="9" fill="white" stroke="#379FFF"/>
<rect x="0.5" y="384.5" width="9" height="9" fill="white" stroke="#379FFF"/>
<path d="M170 399C170 396.791 171.791 395 174 395H219C221.209 395 223 396.791 223 399V411C223 413.209 221.209 415 219 415H174C171.791 415 170 413.209 170 411V399Z" fill="#2D9AFF"/>
<path d="M175.205 409V407.67L178.312 404.794C178.576 404.538 178.798 404.308 178.977 404.104C179.158 403.899 179.296 403.699 179.39 403.503C179.484 403.304 179.531 403.089 179.531 402.859C179.531 402.604 179.472 402.384 179.356 402.199C179.239 402.011 179.08 401.868 178.879 401.768C178.677 401.666 178.448 401.615 178.193 401.615C177.926 401.615 177.693 401.669 177.494 401.777C177.295 401.885 177.141 402.04 177.033 402.241C176.926 402.443 176.872 402.683 176.872 402.962H175.12C175.12 402.391 175.249 401.895 175.508 401.474C175.766 401.054 176.129 400.729 176.595 400.499C177.06 400.268 177.597 400.153 178.205 400.153C178.83 400.153 179.374 400.264 179.837 400.486C180.303 400.705 180.666 401.009 180.924 401.398C181.183 401.787 181.312 402.233 181.312 402.736C181.312 403.065 181.247 403.391 181.116 403.712C180.988 404.033 180.759 404.389 180.43 404.781C180.1 405.17 179.636 405.638 179.036 406.183L177.762 407.432V407.491H181.427V409H175.205ZM183.404 407.466V406.013L187.048 400.273H188.301V402.284H187.559L185.262 405.919V405.987H190.44V407.466H183.404ZM187.593 409V407.023L187.627 406.379V400.273H189.357V409H187.593ZM197.986 407.79L192.893 402.706L194.01 401.577L199.107 406.673L197.986 407.79ZM194.01 407.79L192.893 406.673L197.986 401.577L199.107 402.706L194.01 407.79ZM201.746 409V407.67L204.852 404.794C205.116 404.538 205.338 404.308 205.517 404.104C205.699 403.899 205.836 403.699 205.93 403.503C206.024 403.304 206.071 403.089 206.071 402.859C206.071 402.604 206.013 402.384 205.896 402.199C205.78 402.011 205.621 401.868 205.419 401.768C205.217 401.666 204.988 401.615 204.733 401.615C204.466 401.615 204.233 401.669 204.034 401.777C203.835 401.885 203.682 402.04 203.574 402.241C203.466 402.443 203.412 402.683 203.412 402.962H201.66C201.66 402.391 201.79 401.895 202.048 401.474C202.307 401.054 202.669 400.729 203.135 400.499C203.601 400.268 204.138 400.153 204.746 400.153C205.371 400.153 205.915 400.264 206.378 400.486C206.844 400.705 207.206 401.009 207.464 401.398C207.723 401.787 207.852 402.233 207.852 402.736C207.852 403.065 207.787 403.391 207.656 403.712C207.528 404.033 207.299 404.389 206.97 404.781C206.64 405.17 206.176 405.638 205.576 406.183L204.302 407.432V407.491H207.967V409H201.746ZM209.945 407.466V406.013L213.588 400.273H214.841V402.284H214.099L211.802 405.919V405.987H216.98V407.466H209.945ZM214.133 409V407.023L214.168 406.379V400.273H215.898V409H214.133Z" fill="white"/>
<defs>
<linearGradient id="paint0_linear_1797_9400" x1="389" y1="4.99999" x2="4.99997" y2="389" gradientUnits="userSpaceOnUse">
<stop stop-color="#E200E7"/>
<stop offset="0.328125" stop-color="#AA20FF"/>
<stop offset="1" stop-color="#31004F"/>
</linearGradient>
<clipPath id="clip0_1797_9400">
<rect x="5" y="5" width="384" height="384" rx="64" fill="white"/>
</clipPath>
</defs>
</svg>
