<svg width="110" height="128" viewBox="0 0 110 128" fill="none" xmlns="http://www.w3.org/2000/svg">
<rect x="4.5" y="13.5" width="101" height="101" fill="url(#paint0_linear_1800_1690)" stroke="#F8ACFF"/>
<g opacity="0.3">
<rect x="5" y="14" width="10" height="10" stroke="white" stroke-width="0.5"/>
<rect x="5" y="94" width="10" height="10" stroke="white" stroke-width="0.5"/>
<rect x="5" y="24" width="10" height="10" stroke="white" stroke-width="0.5"/>
<rect x="5" y="104" width="10" height="10" stroke="white" stroke-width="0.5"/>
<rect x="5" y="34" width="10" height="10" stroke="white" stroke-width="0.5"/>
<rect x="5" y="44" width="10" height="10" stroke="white" stroke-width="0.5"/>
<rect x="5" y="54" width="10" height="10" stroke="white" stroke-width="0.5"/>
<rect x="5" y="64" width="10" height="10" stroke="white" stroke-width="0.5"/>
<rect x="5" y="74" width="10" height="10" stroke="white" stroke-width="0.5"/>
<rect x="5" y="84" width="10" height="10" stroke="white" stroke-width="0.5"/>
<rect x="85" y="14" width="10" height="10" stroke="white" stroke-width="0.5"/>
<rect x="85" y="94" width="10" height="10" stroke="white" stroke-width="0.5"/>
<rect x="85" y="24" width="10" height="10" stroke="white" stroke-width="0.5"/>
<rect x="85" y="104" width="10" height="10" stroke="white" stroke-width="0.5"/>
<rect x="85" y="34" width="10" height="10" stroke="white" stroke-width="0.5"/>
<rect x="85" y="44" width="10" height="10" stroke="white" stroke-width="0.5"/>
<rect x="85" y="54" width="10" height="10" stroke="white" stroke-width="0.5"/>
<rect x="85" y="64" width="10" height="10" stroke="white" stroke-width="0.5"/>
<rect x="85" y="74" width="10" height="10" stroke="white" stroke-width="0.5"/>
<rect x="85" y="84" width="10" height="10" stroke="white" stroke-width="0.5"/>
<rect x="45" y="14" width="10" height="10" stroke="white" stroke-width="0.5"/>
<rect x="45" y="94" width="10" height="10" stroke="white" stroke-width="0.5"/>
<rect x="45" y="24" width="10" height="10" stroke="white" stroke-width="0.5"/>
<rect x="45" y="104" width="10" height="10" stroke="white" stroke-width="0.5"/>
<rect x="45" y="34" width="10" height="10" stroke="white" stroke-width="0.5"/>
<rect x="45" y="44" width="10" height="10" stroke="white" stroke-width="0.5"/>
<rect x="45" y="54" width="10" height="10" stroke="white" stroke-width="0.5"/>
<rect x="45" y="64" width="10" height="10" stroke="white" stroke-width="0.5"/>
<rect x="45" y="74" width="10" height="10" stroke="white" stroke-width="0.5"/>
<rect x="45" y="84" width="10" height="10" stroke="white" stroke-width="0.5"/>
<rect x="25" y="14" width="10" height="10" stroke="white" stroke-width="0.5"/>
<rect x="25" y="94" width="10" height="10" stroke="white" stroke-width="0.5"/>
<rect x="25" y="24" width="10" height="10" stroke="white" stroke-width="0.5"/>
<rect x="25" y="104" width="10" height="10" stroke="white" stroke-width="0.5"/>
<rect x="25" y="34" width="10" height="10" stroke="white" stroke-width="0.5"/>
<rect x="25" y="44" width="10" height="10" stroke="white" stroke-width="0.5"/>
<rect x="25" y="54" width="10" height="10" stroke="white" stroke-width="0.5"/>
<rect x="25" y="64" width="10" height="10" stroke="white" stroke-width="0.5"/>
<rect x="25" y="74" width="10" height="10" stroke="white" stroke-width="0.5"/>
<rect x="25" y="84" width="10" height="10" stroke="white" stroke-width="0.5"/>
<rect x="65" y="14" width="10" height="10" stroke="white" stroke-width="0.5"/>
<rect x="65" y="94" width="10" height="10" stroke="white" stroke-width="0.5"/>
<rect x="65" y="24" width="10" height="10" stroke="white" stroke-width="0.5"/>
<rect x="65" y="104" width="10" height="10" stroke="white" stroke-width="0.5"/>
<rect x="65" y="34" width="10" height="10" stroke="white" stroke-width="0.5"/>
<rect x="65" y="44" width="10" height="10" stroke="white" stroke-width="0.5"/>
<rect x="65" y="54" width="10" height="10" stroke="white" stroke-width="0.5"/>
<rect x="65" y="64" width="10" height="10" stroke="white" stroke-width="0.5"/>
<rect x="65" y="74" width="10" height="10" stroke="white" stroke-width="0.5"/>
<rect x="65" y="84" width="10" height="10" stroke="white" stroke-width="0.5"/>
<rect x="15" y="14" width="10" height="10" stroke="white" stroke-width="0.5"/>
<rect x="15" y="94" width="10" height="10" stroke="white" stroke-width="0.5"/>
<rect x="15" y="24" width="10" height="10" stroke="white" stroke-width="0.5"/>
<rect x="15" y="104" width="10" height="10" stroke="white" stroke-width="0.5"/>
<rect x="15" y="34" width="10" height="10" stroke="white" stroke-width="0.5"/>
<rect x="15" y="44" width="10" height="10" stroke="white" stroke-width="0.5"/>
<rect x="15" y="54" width="10" height="10" stroke="white" stroke-width="0.5"/>
<rect x="15" y="64" width="10" height="10" stroke="white" stroke-width="0.5"/>
<rect x="15" y="74" width="10" height="10" stroke="white" stroke-width="0.5"/>
<rect x="15" y="84" width="10" height="10" stroke="white" stroke-width="0.5"/>
<rect x="95" y="14" width="10" height="10" stroke="white" stroke-width="0.5"/>
<rect x="95" y="94" width="10" height="10" stroke="white" stroke-width="0.5"/>
<rect x="95" y="24" width="10" height="10" stroke="white" stroke-width="0.5"/>
<rect x="95" y="104" width="10" height="10" stroke="white" stroke-width="0.5"/>
<rect x="95" y="34" width="10" height="10" stroke="white" stroke-width="0.5"/>
<rect x="95" y="44" width="10" height="10" stroke="white" stroke-width="0.5"/>
<rect x="95" y="54" width="10" height="10" stroke="white" stroke-width="0.5"/>
<rect x="95" y="64" width="10" height="10" stroke="white" stroke-width="0.5"/>
<rect x="95" y="74" width="10" height="10" stroke="white" stroke-width="0.5"/>
<rect x="95" y="84" width="10" height="10" stroke="white" stroke-width="0.5"/>
<rect x="55" y="14" width="10" height="10" stroke="white" stroke-width="0.5"/>
<rect x="55" y="94" width="10" height="10" stroke="white" stroke-width="0.5"/>
<rect x="55" y="24" width="10" height="10" stroke="white" stroke-width="0.5"/>
<rect x="55" y="104" width="10" height="10" stroke="white" stroke-width="0.5"/>
<rect x="55" y="34" width="10" height="10" stroke="white" stroke-width="0.5"/>
<rect x="55" y="44" width="10" height="10" stroke="white" stroke-width="0.5"/>
<rect x="55" y="54" width="10" height="10" stroke="white" stroke-width="0.5"/>
<rect x="55" y="64" width="10" height="10" stroke="white" stroke-width="0.5"/>
<rect x="55" y="74" width="10" height="10" stroke="white" stroke-width="0.5"/>
<rect x="55" y="84" width="10" height="10" stroke="white" stroke-width="0.5"/>
<rect x="35" y="14" width="10" height="10" stroke="white" stroke-width="0.5"/>
<rect x="35" y="94" width="10" height="10" stroke="white" stroke-width="0.5"/>
<rect x="35" y="24" width="10" height="10" stroke="white" stroke-width="0.5"/>
<rect x="35" y="104" width="10" height="10" stroke="white" stroke-width="0.5"/>
<rect x="35" y="34" width="10" height="10" stroke="white" stroke-width="0.5"/>
<rect x="35" y="44" width="10" height="10" stroke="white" stroke-width="0.5"/>
<rect x="35" y="54" width="10" height="10" stroke="white" stroke-width="0.5"/>
<rect x="35" y="64" width="10" height="10" stroke="white" stroke-width="0.5"/>
<rect x="35" y="74" width="10" height="10" stroke="white" stroke-width="0.5"/>
<rect x="35" y="84" width="10" height="10" stroke="white" stroke-width="0.5"/>
<rect x="75" y="14" width="10" height="10" stroke="white" stroke-width="0.5"/>
<rect x="75" y="94" width="10" height="10" stroke="white" stroke-width="0.5"/>
<rect x="75" y="24" width="10" height="10" stroke="white" stroke-width="0.5"/>
<rect x="75" y="104" width="10" height="10" stroke="white" stroke-width="0.5"/>
<rect x="75" y="34" width="10" height="10" stroke="white" stroke-width="0.5"/>
<rect x="75" y="44" width="10" height="10" stroke="white" stroke-width="0.5"/>
<rect x="75" y="54" width="10" height="10" stroke="white" stroke-width="0.5"/>
<rect x="75" y="64" width="10" height="10" stroke="white" stroke-width="0.5"/>
<rect x="75" y="74" width="10" height="10" stroke="white" stroke-width="0.5"/>
<rect x="75" y="84" width="10" height="10" stroke="white" stroke-width="0.5"/>
</g>
<path fill-rule="evenodd" clip-rule="evenodd" d="M64.1839 35H54.456H54.4559H44.728C42.148 35 39.6736 36.0249 37.8493 37.8493C36.0249 39.6736 35 42.148 35 44.728C35 47.308 36.0249 49.7824 37.8493 51.6067C39.665 53.4225 42.1247 54.4463 44.6915 54.4559C42.1247 54.4655 39.665 55.4894 37.8493 57.3051C36.0249 59.1295 35 61.6038 35 64.1839C35 66.7639 36.0249 69.2382 37.8493 71.0626C39.6736 72.8869 42.148 73.9119 44.728 73.9119H54.456V64.2359C54.4697 66.7972 55.4931 69.2505 57.3051 71.0626C59.1295 72.8869 61.6038 73.9119 64.1839 73.9119C66.7639 73.9119 69.2382 72.8869 71.0626 71.0626C72.8869 69.2382 73.9119 66.7639 73.9119 64.1839C73.9119 61.6038 72.8869 59.1295 71.0626 57.3051C69.2468 55.4894 66.7872 54.4655 64.2203 54.4559C66.7872 54.4463 69.2468 53.4225 71.0626 51.6067C72.8869 49.7824 73.9119 47.308 73.9119 44.728C73.9119 42.148 72.8869 39.6736 71.0626 37.8493C69.2382 36.0249 66.7639 35 64.1839 35ZM64.1318 54.456H54.456V64.1318C54.4697 61.5706 55.4931 59.1172 57.3051 57.3051C59.1172 55.4931 61.5706 54.4697 64.1318 54.456ZM35 83.6401C35 81.0601 36.0249 78.5857 37.8493 76.7614C39.6736 74.937 42.148 73.9121 44.728 73.9121H54.456V83.6401C54.456 86.2201 53.4311 88.6945 51.6067 90.5188C49.7824 92.3432 47.308 93.3681 44.728 93.3681C42.148 93.3681 39.6736 92.3432 37.8493 90.5188C36.0249 88.6945 35 86.2201 35 83.6401Z" fill="black" fill-opacity="0.28"/>
<path fill-rule="evenodd" clip-rule="evenodd" d="M53.7059 34H44.978C42.1328 34 39.404 35.1303 37.3922 37.1422C35.3803 39.154 34.25 41.8828 34.25 44.728C34.25 47.5732 35.3803 50.3019 37.3922 52.3138C38.2885 53.2102 39.3272 53.9316 40.455 54.4559C39.3272 54.9803 38.2885 55.7017 37.3922 56.598C35.3803 58.6099 34.25 61.3386 34.25 64.1839C34.25 67.0291 35.3803 69.7578 37.3922 71.7697C38.2886 72.6662 39.3274 73.3876 40.4554 73.912C39.3274 74.4364 38.2886 75.1578 37.3922 76.0543C35.3803 78.0662 34.25 80.7949 34.25 83.6401C34.25 86.4854 35.3803 89.2141 37.3922 91.226C39.404 93.2378 42.1328 94.3681 44.978 94.3681C47.8232 94.3681 50.552 93.2378 52.5638 91.226C54.5757 89.2141 55.706 86.4854 55.706 83.6401V74.9119V73.9121V73.9119V72.9121V70.4221C56.0468 70.8989 56.4282 71.3499 56.848 71.7697C58.8599 73.7816 61.5886 74.9119 64.4339 74.9119C67.2791 74.9119 70.0078 73.7816 72.0197 71.7697C74.0316 69.7578 75.1619 67.0291 75.1619 64.1839C75.1619 61.3386 74.0316 58.6099 72.0197 56.598C71.1233 55.7017 70.0847 54.9803 68.9568 54.4559C70.0847 53.9316 71.1233 53.2102 72.0197 52.3138C74.0316 50.302 75.1619 47.5732 75.1619 44.728C75.1619 41.8828 74.0316 39.154 72.0197 37.1422C70.0078 35.1303 67.2791 34 64.4339 34H55.706H54.706H54.7059H53.7059ZM64.3845 55.456H64.4339C64.4461 55.456 64.4583 55.456 64.4705 55.4559C66.7721 55.4656 68.9773 56.3841 70.6055 58.0122C72.2423 59.649 73.1619 61.869 73.1619 64.1839C73.1619 66.4987 72.2423 68.7187 70.6055 70.3555C68.9687 71.9923 66.7487 72.9119 64.4339 72.9119C62.119 72.9119 59.899 71.9923 58.2622 70.3555C56.637 68.7303 55.719 66.5302 55.706 64.2332V64.1345C55.719 61.8375 56.637 59.6374 58.2622 58.0122C59.8874 56.387 62.0875 55.469 64.3845 55.456ZM64.4705 53.4559C64.4583 53.4559 64.4461 53.4559 64.4339 53.4559C64.4156 53.4559 64.3974 53.4559 64.3792 53.456H55.706V53.4559V36H64.4339C66.7487 36 68.9687 36.9196 70.6055 38.5564C72.2423 40.1932 73.1619 42.4132 73.1619 44.728C73.1619 47.0428 72.2423 49.2628 70.6055 50.8996C68.9773 52.5278 66.7721 53.4463 64.4705 53.4559ZM58.1956 55.456C57.7189 55.7968 57.2678 56.1782 56.848 56.598C56.4282 57.0178 56.0468 57.4689 55.706 57.9456V55.456H58.1956ZM53.706 64.1292V55.456H53.7059H44.978L44.9414 55.4559C42.6398 55.4656 40.4346 56.3841 38.8064 58.0122C37.1696 59.649 36.25 61.869 36.25 64.1839C36.25 66.4987 37.1696 68.7187 38.8064 70.3555C40.4432 71.9923 42.6632 72.9119 44.978 72.9119H53.706V64.2386C53.7059 64.2203 53.7059 64.2021 53.7059 64.1839C53.7059 64.1656 53.7059 64.1474 53.706 64.1292ZM44.978 53.4559H53.7059V36H44.978C42.6632 36 40.4432 36.9196 38.8064 38.5564C37.1696 40.1932 36.25 42.4132 36.25 44.728C36.25 47.0428 37.1696 49.2628 38.8064 50.8996C40.4346 52.5278 42.6398 53.4463 44.9414 53.4559L44.978 53.4559ZM44.978 74.9121C42.6632 74.9121 40.4432 75.8317 38.8064 77.4685C37.1696 79.1053 36.25 81.3253 36.25 83.6401C36.25 85.9549 37.1696 88.1749 38.8064 89.8117C40.4432 91.4486 42.6632 92.3681 44.978 92.3681C47.2928 92.3681 49.5128 91.4486 51.1496 89.8117C52.7864 88.1749 53.706 85.9549 53.706 83.6401V74.9121H44.978Z" fill="url(#paint1_linear_1800_1690)"/>
<path fill-rule="evenodd" clip-rule="evenodd" d="M9 10H1V18H9V10ZM9 110H1V118H9V110ZM101 10H109V18H101V10ZM109 110H101V118H109V110Z" fill="#360043"/>
<path d="M1 10V9H0V10H1ZM9 10H10V9H9V10ZM1 18H0V19H1V18ZM9 18V19H10V18H9ZM1 110V109H0V110H1ZM9 110H10V109H9V110ZM1 118H0V119H1V118ZM9 118V119H10V118H9ZM109 10H110V9H109V10ZM101 10V9H100V10H101ZM109 18V19H110V18H109ZM101 18H100V19H101V18ZM101 110V109H100V110H101ZM109 110H110V109H109V110ZM101 118H100V119H101V118ZM109 118V119H110V118H109ZM1 11H9V9H1V11ZM2 18V10H0V18H2ZM9 17H1V19H9V17ZM8 10V18H10V10H8ZM1 111H9V109H1V111ZM2 118V110H0V118H2ZM9 117H1V119H9V117ZM8 110V118H10V110H8ZM109 9H101V11H109V9ZM110 18V10H108V18H110ZM101 19H109V17H101V19ZM100 10V18H102V10H100ZM101 111H109V109H101V111ZM102 118V110H100V118H102ZM109 117H101V119H109V117ZM108 110V118H110V110H108Z" fill="#F8ACFF"/>
<g filter="url(#filter0_d_1800_1690)">
<rect x="25" y="23" width="30" height="2" fill="url(#paint2_linear_1800_1690)" shape-rendering="crispEdges"/>
</g>
<g filter="url(#filter1_d_1800_1690)">
<ellipse cx="25" cy="24" rx="1" ry="1" transform="rotate(90 25 24)" fill="white"/>
</g>
<g filter="url(#filter2_d_1800_1690)">
<rect x="84" y="64" width="30" height="2" transform="rotate(-90 84 64)" fill="url(#paint3_linear_1800_1690)" shape-rendering="crispEdges"/>
</g>
<g filter="url(#filter3_d_1800_1690)">
<circle cx="85" cy="64" r="1" fill="white"/>
</g>
<g filter="url(#filter4_d_1800_1690)">
<rect x="75" y="105" width="30" height="2" transform="rotate(180 75 105)" fill="url(#paint4_linear_1800_1690)" shape-rendering="crispEdges"/>
</g>
<g filter="url(#filter5_d_1800_1690)">
<ellipse cx="75" cy="104" rx="1" ry="1" transform="rotate(-90 75 104)" fill="white"/>
</g>
<defs>
<filter id="filter0_d_1800_1690" x="2" y="0" width="76" height="48" filterUnits="userSpaceOnUse" color-interpolation-filters="sRGB">
<feFlood flood-opacity="0" result="BackgroundImageFix"/>
<feColorMatrix in="SourceAlpha" type="matrix" values="0 0 0 0 0 0 0 0 0 0 0 0 0 0 0 0 0 0 127 0" result="hardAlpha"/>
<feOffset/>
<feGaussianBlur stdDeviation="11.5"/>
<feComposite in2="hardAlpha" operator="out"/>
<feColorMatrix type="matrix" values="0 0 0 0 1 0 0 0 0 0.360784 0 0 0 0 0.552941 0 0 0 1 0"/>
<feBlend mode="normal" in2="BackgroundImageFix" result="effect1_dropShadow_1800_1690"/>
<feBlend mode="normal" in="SourceGraphic" in2="effect1_dropShadow_1800_1690" result="shape"/>
</filter>
<filter id="filter1_d_1800_1690" x="6" y="5" width="38" height="38" filterUnits="userSpaceOnUse" color-interpolation-filters="sRGB">
<feFlood flood-opacity="0" result="BackgroundImageFix"/>
<feColorMatrix in="SourceAlpha" type="matrix" values="0 0 0 0 0 0 0 0 0 0 0 0 0 0 0 0 0 0 127 0" result="hardAlpha"/>
<feMorphology radius="4" operator="dilate" in="SourceAlpha" result="effect1_dropShadow_1800_1690"/>
<feOffset/>
<feGaussianBlur stdDeviation="7"/>
<feComposite in2="hardAlpha" operator="out"/>
<feColorMatrix type="matrix" values="0 0 0 0 0.995129 0 0 0 0 0.779167 0 0 0 0 1 0 0 0 1 0"/>
<feBlend mode="normal" in2="BackgroundImageFix" result="effect1_dropShadow_1800_1690"/>
<feBlend mode="normal" in="SourceGraphic" in2="effect1_dropShadow_1800_1690" result="shape"/>
</filter>
<filter id="filter2_d_1800_1690" x="61" y="11" width="48" height="76" filterUnits="userSpaceOnUse" color-interpolation-filters="sRGB">
<feFlood flood-opacity="0" result="BackgroundImageFix"/>
<feColorMatrix in="SourceAlpha" type="matrix" values="0 0 0 0 0 0 0 0 0 0 0 0 0 0 0 0 0 0 127 0" result="hardAlpha"/>
<feOffset/>
<feGaussianBlur stdDeviation="11.5"/>
<feComposite in2="hardAlpha" operator="out"/>
<feColorMatrix type="matrix" values="0 0 0 0 1 0 0 0 0 0.360784 0 0 0 0 0.552941 0 0 0 1 0"/>
<feBlend mode="normal" in2="BackgroundImageFix" result="effect1_dropShadow_1800_1690"/>
<feBlend mode="normal" in="SourceGraphic" in2="effect1_dropShadow_1800_1690" result="shape"/>
</filter>
<filter id="filter3_d_1800_1690" x="66" y="45" width="38" height="38" filterUnits="userSpaceOnUse" color-interpolation-filters="sRGB">
<feFlood flood-opacity="0" result="BackgroundImageFix"/>
<feColorMatrix in="SourceAlpha" type="matrix" values="0 0 0 0 0 0 0 0 0 0 0 0 0 0 0 0 0 0 127 0" result="hardAlpha"/>
<feMorphology radius="4" operator="dilate" in="SourceAlpha" result="effect1_dropShadow_1800_1690"/>
<feOffset/>
<feGaussianBlur stdDeviation="7"/>
<feComposite in2="hardAlpha" operator="out"/>
<feColorMatrix type="matrix" values="0 0 0 0 0.995129 0 0 0 0 0.779167 0 0 0 0 1 0 0 0 1 0"/>
<feBlend mode="normal" in2="BackgroundImageFix" result="effect1_dropShadow_1800_1690"/>
<feBlend mode="normal" in="SourceGraphic" in2="effect1_dropShadow_1800_1690" result="shape"/>
</filter>
<filter id="filter4_d_1800_1690" x="22" y="80" width="76" height="48" filterUnits="userSpaceOnUse" color-interpolation-filters="sRGB">
<feFlood flood-opacity="0" result="BackgroundImageFix"/>
<feColorMatrix in="SourceAlpha" type="matrix" values="0 0 0 0 0 0 0 0 0 0 0 0 0 0 0 0 0 0 127 0" result="hardAlpha"/>
<feOffset/>
<feGaussianBlur stdDeviation="11.5"/>
<feComposite in2="hardAlpha" operator="out"/>
<feColorMatrix type="matrix" values="0 0 0 0 1 0 0 0 0 0.360784 0 0 0 0 0.552941 0 0 0 1 0"/>
<feBlend mode="normal" in2="BackgroundImageFix" result="effect1_dropShadow_1800_1690"/>
<feBlend mode="normal" in="SourceGraphic" in2="effect1_dropShadow_1800_1690" result="shape"/>
</filter>
<filter id="filter5_d_1800_1690" x="56" y="85" width="38" height="38" filterUnits="userSpaceOnUse" color-interpolation-filters="sRGB">
<feFlood flood-opacity="0" result="BackgroundImageFix"/>
<feColorMatrix in="SourceAlpha" type="matrix" values="0 0 0 0 0 0 0 0 0 0 0 0 0 0 0 0 0 0 127 0" result="hardAlpha"/>
<feMorphology radius="4" operator="dilate" in="SourceAlpha" result="effect1_dropShadow_1800_1690"/>
<feOffset/>
<feGaussianBlur stdDeviation="7"/>
<feComposite in2="hardAlpha" operator="out"/>
<feColorMatrix type="matrix" values="0 0 0 0 0.995129 0 0 0 0 0.779167 0 0 0 0 1 0 0 0 1 0"/>
<feBlend mode="normal" in2="BackgroundImageFix" result="effect1_dropShadow_1800_1690"/>
<feBlend mode="normal" in="SourceGraphic" in2="effect1_dropShadow_1800_1690" result="shape"/>
</filter>
<linearGradient id="paint0_linear_1800_1690" x1="105" y1="14" x2="4.99999" y2="114" gradientUnits="userSpaceOnUse">
<stop stop-color="#E338D2"/>
<stop offset="0.354167" stop-color="#B037FB"/>
<stop offset="1" stop-color="#28063D" stop-opacity="0.21"/>
</linearGradient>
<linearGradient id="paint1_linear_1800_1690" x1="36.0858" y1="35.8215" x2="63.2957" y2="84.6624" gradientUnits="userSpaceOnUse">
<stop stop-color="#F68CFF"/>
<stop offset="0.354167" stop-color="#DBACFF"/>
<stop offset="1" stop-color="#7D68FF"/>
</linearGradient>
<linearGradient id="paint2_linear_1800_1690" x1="55" y1="25.0017" x2="24.6301" y2="25.0017" gradientUnits="userSpaceOnUse">
<stop stop-color="#FFB1CE" stop-opacity="0"/>
<stop offset="1" stop-color="#FFB1CE"/>
</linearGradient>
<linearGradient id="paint3_linear_1800_1690" x1="114" y1="66.0017" x2="83.6301" y2="66.0017" gradientUnits="userSpaceOnUse">
<stop stop-color="#FFB1CE" stop-opacity="0"/>
<stop offset="1" stop-color="#FFB1CE"/>
</linearGradient>
<linearGradient id="paint4_linear_1800_1690" x1="105" y1="107.002" x2="74.6301" y2="107.002" gradientUnits="userSpaceOnUse">
<stop stop-color="#FFB1CE" stop-opacity="0"/>
<stop offset="1" stop-color="#FFB1CE"/>
</linearGradient>
</defs>
</svg>
