<svg width="153" height="151" viewBox="0 0 153 151" fill="none" xmlns="http://www.w3.org/2000/svg">
<rect x="24" y="4" width="87" height="87" rx="20" fill="url(#paint0_linear_1800_1691)" stroke="#884C8D" stroke-width="2"/>
<g filter="url(#filter0_d_1800_1691)">
<path fill-rule="evenodd" clip-rule="evenodd" d="M62.0446 31.0004C63.6254 31.0004 63.9388 31.0265 64.18 31.1097C64.4603 31.2064 64.7155 31.3642 64.9273 31.5716C65.1096 31.7502 65.2731 32.0188 65.9801 33.4327L66.7639 35.0004H50.0001C50.001 34.0702 50.0071 33.4344 50.0479 32.9361C50.0922 32.3928 50.1676 32.1913 50.218 32.0925C50.4097 31.7161 50.7157 31.4102 51.092 31.2184C51.1909 31.168 51.3923 31.0927 51.9357 31.0483C52.5023 31.002 53.2469 31.0004 54.4 31.0004H62.0446ZM46 37.0004V35.4004V35.3233C46 34.269 45.9999 33.3595 46.0611 32.6104C46.1257 31.8197 46.2684 31.0332 46.654 30.2765C47.2292 29.1475 48.1471 28.2296 49.2761 27.6544C50.0328 27.2688 50.8193 27.1262 51.6099 27.0616C52.3591 27.0004 53.2686 27.0004 54.3229 27.0004L54.3229 27.0004L54.4 27.0004H62.0446L62.2933 27.0002C63.4804 26.9986 64.5244 26.9973 65.4843 27.3284C66.325 27.6184 67.0908 28.0916 67.7262 28.7139C68.4516 29.4244 68.9172 30.3588 69.4467 31.4213L69.5578 31.6438L71.2361 35.0004H78.4L78.4826 35.0004C80.0925 35.0004 81.4213 35.0004 82.5037 35.0888C83.6278 35.1807 84.6613 35.3778 85.6319 35.8724C87.1372 36.6394 88.3611 37.8632 89.1281 39.3685C89.6226 40.3392 89.8198 41.3726 89.9116 42.4968C90 43.5792 90 44.9079 90 46.5178V46.6004V55.4004V55.4831C90 57.093 90 58.4217 89.9116 59.5041C89.8198 60.6283 89.6226 61.6617 89.1281 62.6324C88.3611 64.1377 87.1372 65.3615 85.6319 66.1285C84.6613 66.6231 83.6278 66.8202 82.5037 66.9121C81.4212 67.0005 80.0925 67.0005 78.4826 67.0005H78.4H57.6H57.5175C55.9075 67.0005 54.5788 67.0005 53.4963 66.9121C52.3722 66.8202 51.3387 66.6231 50.3681 66.1285C48.8628 65.3615 47.6389 64.1377 46.8719 62.6324C46.3774 61.6617 46.1802 60.6283 46.0884 59.5041C46 58.4217 46 57.093 46 55.483V55.4004V37.0004ZM69.9598 39.0004C69.9876 39.001 70.0154 39.001 70.0433 39.0004H78.4C80.1132 39.0004 81.2777 39.002 82.1779 39.0755C83.0548 39.1472 83.5032 39.277 83.816 39.4364C84.5686 39.8199 85.1805 40.4318 85.564 41.1845C85.7234 41.4973 85.8533 41.9457 85.9249 42.8225C85.9984 43.7227 86 44.8873 86 46.6004V55.4004C86 57.1136 85.9984 58.2782 85.9249 59.1784C85.8533 60.0552 85.7234 60.5036 85.564 60.8164C85.1805 61.5691 84.5686 62.181 83.816 62.5645C83.5032 62.7239 83.0548 62.8537 82.1779 62.9253C81.2777 62.9989 80.1132 63.0004 78.4 63.0004H57.6C55.8868 63.0004 54.7223 62.9989 53.8221 62.9253C52.9452 62.8537 52.4968 62.7239 52.184 62.5645C51.4314 62.181 50.8195 61.5691 50.436 60.8164C50.2766 60.5036 50.1467 60.0552 50.0751 59.1784C50.0016 58.2782 50 57.1136 50 55.4004V39.0004H69.9598ZM70.5858 44.5862C71.3668 43.8052 72.6332 43.8052 73.4142 44.5862L78.4142 49.5862C79.1953 50.3673 79.1953 51.6336 78.4142 52.4147L73.4142 57.4147C72.6332 58.1957 71.3668 58.1957 70.5858 57.4147C69.8047 56.6336 69.8047 55.3673 70.5858 54.5862L74.1716 51.0004L70.5858 47.4147C69.8047 46.6336 69.8047 45.3673 70.5858 44.5862ZM65.4142 47.4147C66.1953 46.6336 66.1953 45.3673 65.4142 44.5862C64.6332 43.8052 63.3668 43.8052 62.5858 44.5862L57.5858 49.5862C56.8047 50.3673 56.8047 51.6336 57.5858 52.4147L62.5858 57.4147C63.3668 58.1957 64.6332 58.1957 65.4142 57.4147C66.1953 56.6336 66.1953 55.3673 65.4142 54.5862L61.8284 51.0004L65.4142 47.4147Z" fill="url(#paint1_linear_1800_1691)" fill-opacity="0.58" shape-rendering="crispEdges"/>
<path d="M64.5774 31.9288L64.9042 31.5951L64.5774 31.9288C64.6211 31.9716 64.6808 32.0383 64.8228 32.2868C64.9669 32.5393 65.1787 32.948 65.5329 33.6563L65.9549 34.5004H50.5014C50.5046 33.8371 50.5148 33.3609 50.5462 32.9768C50.5878 32.4678 50.6541 32.3378 50.6633 32.3198L50.6635 32.3194C50.8073 32.0372 51.0368 31.8077 51.319 31.6639L51.3194 31.6637C51.3374 31.6546 51.4674 31.5882 51.9764 31.5466C52.5179 31.5024 53.2383 31.5004 54.4 31.5004H62.0446C62.8365 31.5004 63.2967 31.5071 63.587 31.5231C63.8728 31.5389 63.9592 31.5625 64.017 31.5824C64.2272 31.6549 64.4186 31.7732 64.5774 31.9288ZM50.8815 60.5894L50.4422 60.8132L50.8815 60.5894C50.7641 60.359 50.6426 59.9838 50.5734 59.1377C50.502 58.2626 50.5 57.1221 50.5 55.4004V39.5004H69.9548C69.9859 39.501 70.0171 39.501 70.0483 39.5004H78.4C80.1216 39.5004 81.2622 39.5024 82.1372 39.5739C82.9834 39.643 83.3585 39.7645 83.589 39.8819C84.2475 40.2175 84.783 40.7529 85.1185 41.4115C85.2359 41.6419 85.3574 42.0171 85.4266 42.8632C85.4981 43.7383 85.5 44.8788 85.5 46.6004V55.4004C85.5 57.1221 85.4981 58.2626 85.4266 59.1377C85.3574 59.9838 85.2359 60.359 85.1185 60.5894C84.783 61.248 84.2475 61.7834 83.589 62.119C83.3585 62.2364 82.9834 62.3579 82.1372 62.427C81.2622 62.4985 80.1216 62.5005 78.4 62.5005H57.6C55.8784 62.5005 54.7378 62.4985 53.8628 62.427C53.0166 62.3579 52.6415 62.2364 52.411 62.119C51.7525 61.7834 51.217 61.248 50.8815 60.5894ZM45.5 35.4004V37.0004V55.4004V55.483L45.5 55.5026C45.5 57.0966 45.5 58.442 45.59 59.5448C45.6844 60.7 45.89 61.8065 46.4264 62.8594C47.2414 64.4587 48.5417 65.7591 50.1411 66.574C51.1939 67.1105 52.3004 67.316 53.4556 67.4104C54.5585 67.5005 55.904 67.5005 57.4981 67.5005H57.5175H57.6H78.4H78.4825H78.5019C80.096 67.5005 81.4415 67.5005 82.5444 67.4104C83.6996 67.316 84.8061 67.1105 85.8589 66.574C87.4583 65.7591 88.7586 64.4587 89.5736 62.8594C90.11 61.8065 90.3156 60.7 90.41 59.5448C90.5001 58.442 90.5 57.0965 90.5 55.5024V55.4831V55.4004V46.6004V46.5178V46.4985C90.5 44.9044 90.5001 43.5589 90.41 42.4561C90.3156 41.3008 90.11 40.1944 89.5736 39.1415C88.7586 37.5421 87.4583 36.2418 85.8589 35.4269C84.8061 34.8904 83.6996 34.6849 82.5444 34.5905C81.4416 34.5004 80.0962 34.5004 78.5021 34.5004H78.4826L78.4 34.5004H71.5451L70.0052 31.4206L70.005 31.4202L69.8942 31.1983L69.8941 31.1981L69.8731 31.1557C69.3599 30.1258 68.8619 29.1264 68.076 28.3567C67.3877 27.6826 66.5581 27.1698 65.6473 26.8557C64.6075 26.497 63.4909 26.4986 62.3402 26.5001L62.2929 26.5002L62.2927 26.5002L62.0446 26.5004H62.0443H54.4L54.3229 26.5004L54.3051 26.5004C53.265 26.5004 52.3388 26.5004 51.5692 26.5632C50.7475 26.6304 49.888 26.7814 49.0491 27.2089C47.826 27.8321 46.8316 28.8264 46.2085 30.0495C45.781 30.8884 45.6299 31.7479 45.5628 32.5697C45.4999 33.3392 45.5 34.2655 45.5 35.3056L45.5 35.3233V35.3234V35.4004ZM73.7678 44.2327C72.7915 43.2564 71.2085 43.2564 70.2322 44.2327C69.2559 45.209 69.2559 46.7919 70.2322 47.7682L73.4645 51.0004L70.2322 54.2327C69.2559 55.209 69.2559 56.7919 70.2322 57.7682C71.2085 58.7445 72.7915 58.7445 73.7678 57.7682L78.7678 52.7682C79.7441 51.7919 79.7441 50.209 78.7678 49.2327L73.7678 44.2327ZM65.7678 47.7682C66.7441 46.7919 66.7441 45.209 65.7678 44.2327C64.7915 43.2564 63.2085 43.2564 62.2322 44.2327L57.2322 49.2327C56.2559 50.209 56.2559 51.7919 57.2322 52.7682L62.2322 57.7682C63.2085 58.7445 64.7915 58.7445 65.7678 57.7682C66.7441 56.7919 66.7441 55.209 65.7678 54.2327L62.5355 51.0004L65.7678 47.7682Z" stroke="url(#paint2_linear_1800_1691)" shape-rendering="crispEdges"/>
</g>
<rect x="60" y="40" width="87" height="87" rx="20" fill="url(#paint3_linear_1800_1691)" stroke="#884C8D" stroke-width="2"/>
<g filter="url(#filter1_d_1800_1691)">
<path fill-rule="evenodd" clip-rule="evenodd" d="M92 75C92 68.3726 97.3726 63 104 63C110.627 63 116 68.3726 116 75V77.3006C116.565 77.4245 117.108 77.6049 117.632 77.8719C119.137 78.6389 120.361 79.8628 121.128 81.3681C121.623 82.3387 121.82 83.3722 121.912 84.4963C122 85.5787 122 86.9074 122 88.5174V88.6V91.4V91.4826C122 93.0926 122 94.4213 121.912 95.5037C121.82 96.6278 121.623 97.6613 121.128 98.6319C120.361 100.137 119.137 101.361 117.632 102.128C116.661 102.623 115.628 102.82 114.504 102.912C113.421 103 112.093 103 110.483 103H110.4H97.6H97.5174C95.9075 103 94.5788 103 93.4963 102.912C92.3722 102.82 91.3387 102.623 90.3681 102.128C88.8628 101.361 87.6389 100.137 86.8719 98.6319C86.3774 97.6613 86.1802 96.6278 86.0884 95.5037C86 94.4213 86 93.0925 86 91.4826V91.4V88.6V88.5174C86 86.9075 86 85.5787 86.0884 84.4963C86.1802 83.3722 86.3774 82.3387 86.8719 81.3681C87.6389 79.8628 88.8628 78.6389 90.3681 77.8719C90.8923 77.6049 91.4348 77.4245 92 77.3006V75ZM96 77.0033C96.4754 77 96.9808 77 97.5174 77L97.6 77H110.4L110.483 77C111.019 77 111.525 77 112 77.0033V75C112 70.5817 108.418 67 104 67C99.5817 67 96 70.5817 96 75V77.0033ZM104 86C105.105 86 106 86.8954 106 88V92C106 93.1046 105.105 94 104 94C102.895 94 102 93.1046 102 92V88C102 86.8954 102.895 86 104 86ZM92.184 81.436C92.4968 81.2766 92.9452 81.1467 93.8221 81.0751C94.7223 81.0016 95.8868 81 97.6 81H110.4C112.113 81 113.278 81.0016 114.178 81.0751C115.055 81.1467 115.503 81.2766 115.816 81.436C116.569 81.8195 117.181 82.4314 117.564 83.184C117.723 83.4968 117.853 83.9452 117.925 84.8221C117.998 85.7223 118 86.8868 118 88.6V91.4C118 93.1132 117.998 94.2777 117.925 95.1779C117.853 96.0548 117.723 96.5032 117.564 96.816C117.181 97.5686 116.569 98.1805 115.816 98.564C115.503 98.7234 115.055 98.8533 114.178 98.9249C113.278 98.9984 112.113 99 110.4 99H97.6C95.8868 99 94.7223 98.9984 93.8221 98.9249C92.9452 98.8533 92.4968 98.7234 92.184 98.564C91.4314 98.1805 90.8195 97.5686 90.436 96.816C90.2766 96.5032 90.1467 96.0548 90.0751 95.1779C90.0016 94.2777 90 93.1132 90 91.4V88.6C90 86.8868 90.0016 85.7223 90.0751 84.8221C90.1467 83.9452 90.2766 83.4968 90.436 83.184C90.8195 82.4314 91.4314 81.8195 92.184 81.436Z" fill="url(#paint4_linear_1800_1691)" fill-opacity="0.58" shape-rendering="crispEdges"/>
<path d="M104 62.5C97.0964 62.5 91.5 68.0964 91.5 75V76.9082C91.0375 77.0332 90.5845 77.2005 90.1411 77.4264C88.5417 78.2414 87.2414 79.5417 86.4264 81.1411C85.89 82.1939 85.6844 83.3004 85.59 84.4556C85.4999 85.5584 85.5 86.9039 85.5 88.4979L85.5 88.5174V88.6V91.4V91.4826L85.5 91.5021C85.5 93.0961 85.4999 94.4416 85.59 95.5444C85.6844 96.6996 85.89 97.8061 86.4264 98.8589C87.2414 100.458 88.5417 101.759 90.1411 102.574C91.1939 103.11 92.3004 103.316 93.4556 103.41C94.5585 103.5 95.904 103.5 97.4981 103.5H97.5174H97.6H110.4H110.483H110.502C112.096 103.5 113.442 103.5 114.544 103.41C115.7 103.316 116.806 103.11 117.859 102.574C119.458 101.759 120.759 100.458 121.574 98.8589C122.11 97.8061 122.316 96.6996 122.41 95.5444C122.5 94.4416 122.5 93.096 122.5 91.502V91.4826V91.4V88.6V88.5174V88.498C122.5 86.904 122.5 85.5584 122.41 84.4556C122.316 83.3004 122.11 82.1939 121.574 81.1411C120.759 79.5417 119.458 78.2414 117.859 77.4264C117.415 77.2005 116.962 77.0332 116.5 76.9082V75C116.5 68.0964 110.904 62.5 104 62.5ZM97.5174 76.5H97.5163C97.165 76.5 96.8262 76.5 96.5 76.5009V75C96.5 70.8579 99.8579 67.5 104 67.5C108.142 67.5 111.5 70.8579 111.5 75V76.5009C111.174 76.5 110.835 76.5 110.484 76.5H110.483L110.4 76.5H97.6L97.5174 76.5ZM106.5 88C106.5 86.6193 105.381 85.5 104 85.5C102.619 85.5 101.5 86.6193 101.5 88V92C101.5 93.3807 102.619 94.5 104 94.5C105.381 94.5 106.5 93.3807 106.5 92V88ZM92.411 81.8815C92.6415 81.7641 93.0166 81.6426 93.8628 81.5734C94.7378 81.5019 95.8784 81.5 97.6 81.5H110.4C112.122 81.5 113.262 81.5019 114.137 81.5734C114.983 81.6426 115.359 81.7641 115.589 81.8815C116.248 82.217 116.783 82.7525 117.119 83.411C117.236 83.6415 117.357 84.0166 117.427 84.8628C117.498 85.7378 117.5 86.8784 117.5 88.6V91.4C117.5 93.1216 117.498 94.2622 117.427 95.1372C117.357 95.9834 117.236 96.3585 117.119 96.589C116.783 97.2475 116.248 97.783 115.589 98.1185C115.359 98.2359 114.983 98.3574 114.137 98.4266C113.262 98.4981 112.122 98.5 110.4 98.5H97.6C95.8784 98.5 94.7378 98.4981 93.8628 98.4266C93.0166 98.3574 92.6415 98.2359 92.411 98.1185C91.7525 97.783 91.217 97.2475 90.8815 96.589C90.7641 96.3585 90.6426 95.9834 90.5734 95.1372C90.5019 94.2622 90.5 93.1216 90.5 91.4V88.6C90.5 86.8784 90.5019 85.7378 90.5734 84.8628C90.6426 84.0166 90.7641 83.6415 90.8815 83.411C91.217 82.7525 91.7525 82.217 92.411 81.8815Z" stroke="url(#paint5_linear_1800_1691)" shape-rendering="crispEdges"/>
</g>
<g filter="url(#filter2_d_1800_1691)">
<rect x="120" y="128" width="40" height="2" transform="rotate(180 120 128)" fill="url(#paint6_linear_1800_1691)" shape-rendering="crispEdges"/>
</g>
<g filter="url(#filter3_d_1800_1691)">
<ellipse cx="120" cy="127" rx="2" ry="2" transform="rotate(-90 120 127)" fill="white"/>
</g>
<g filter="url(#filter4_d_1800_1691)">
<rect x="90" y="39" width="40" height="2" fill="url(#paint7_linear_1800_1691)" shape-rendering="crispEdges"/>
</g>
<g filter="url(#filter5_d_1800_1691)">
<ellipse cx="90" cy="40" rx="2" ry="2" transform="rotate(90 90 40)" fill="white"/>
</g>
<g filter="url(#filter6_d_1800_1691)">
<rect x="23" y="63" width="40" height="2" transform="rotate(-90 23 63)" fill="url(#paint8_linear_1800_1691)" shape-rendering="crispEdges"/>
</g>
<g filter="url(#filter7_d_1800_1691)">
<ellipse cx="24" cy="63" rx="2" ry="2" fill="white"/>
</g>
<defs>
<filter id="filter0_d_1800_1691" x="32" y="12.9998" width="72" height="68.0007" filterUnits="userSpaceOnUse" color-interpolation-filters="sRGB">
<feFlood flood-opacity="0" result="BackgroundImageFix"/>
<feColorMatrix in="SourceAlpha" type="matrix" values="0 0 0 0 0 0 0 0 0 0 0 0 0 0 0 0 0 0 127 0" result="hardAlpha"/>
<feOffset/>
<feGaussianBlur stdDeviation="6.5"/>
<feComposite in2="hardAlpha" operator="out"/>
<feColorMatrix type="matrix" values="0 0 0 0 0.757692 0 0 0 0 0.25 0 0 0 0 1 0 0 0 0.63 0"/>
<feBlend mode="normal" in2="BackgroundImageFix" result="effect1_dropShadow_1800_1691"/>
<feBlend mode="normal" in="SourceGraphic" in2="effect1_dropShadow_1800_1691" result="shape"/>
</filter>
<filter id="filter1_d_1800_1691" x="72" y="49" width="64" height="68" filterUnits="userSpaceOnUse" color-interpolation-filters="sRGB">
<feFlood flood-opacity="0" result="BackgroundImageFix"/>
<feColorMatrix in="SourceAlpha" type="matrix" values="0 0 0 0 0 0 0 0 0 0 0 0 0 0 0 0 0 0 127 0" result="hardAlpha"/>
<feOffset/>
<feGaussianBlur stdDeviation="6.5"/>
<feComposite in2="hardAlpha" operator="out"/>
<feColorMatrix type="matrix" values="0 0 0 0 0.757692 0 0 0 0 0.25 0 0 0 0 1 0 0 0 0.63 0"/>
<feBlend mode="normal" in2="BackgroundImageFix" result="effect1_dropShadow_1800_1691"/>
<feBlend mode="normal" in="SourceGraphic" in2="effect1_dropShadow_1800_1691" result="shape"/>
</filter>
<filter id="filter2_d_1800_1691" x="57" y="103" width="86" height="48" filterUnits="userSpaceOnUse" color-interpolation-filters="sRGB">
<feFlood flood-opacity="0" result="BackgroundImageFix"/>
<feColorMatrix in="SourceAlpha" type="matrix" values="0 0 0 0 0 0 0 0 0 0 0 0 0 0 0 0 0 0 127 0" result="hardAlpha"/>
<feOffset/>
<feGaussianBlur stdDeviation="11.5"/>
<feComposite in2="hardAlpha" operator="out"/>
<feColorMatrix type="matrix" values="0 0 0 0 1 0 0 0 0 0.360784 0 0 0 0 0.552941 0 0 0 1 0"/>
<feBlend mode="normal" in2="BackgroundImageFix" result="effect1_dropShadow_1800_1691"/>
<feBlend mode="normal" in="SourceGraphic" in2="effect1_dropShadow_1800_1691" result="shape"/>
</filter>
<filter id="filter3_d_1800_1691" x="100" y="107" width="40" height="40" filterUnits="userSpaceOnUse" color-interpolation-filters="sRGB">
<feFlood flood-opacity="0" result="BackgroundImageFix"/>
<feColorMatrix in="SourceAlpha" type="matrix" values="0 0 0 0 0 0 0 0 0 0 0 0 0 0 0 0 0 0 127 0" result="hardAlpha"/>
<feMorphology radius="4" operator="dilate" in="SourceAlpha" result="effect1_dropShadow_1800_1691"/>
<feOffset/>
<feGaussianBlur stdDeviation="7"/>
<feComposite in2="hardAlpha" operator="out"/>
<feColorMatrix type="matrix" values="0 0 0 0 0.995129 0 0 0 0 0.779167 0 0 0 0 1 0 0 0 1 0"/>
<feBlend mode="normal" in2="BackgroundImageFix" result="effect1_dropShadow_1800_1691"/>
<feBlend mode="normal" in="SourceGraphic" in2="effect1_dropShadow_1800_1691" result="shape"/>
</filter>
<filter id="filter4_d_1800_1691" x="67" y="16" width="86" height="48" filterUnits="userSpaceOnUse" color-interpolation-filters="sRGB">
<feFlood flood-opacity="0" result="BackgroundImageFix"/>
<feColorMatrix in="SourceAlpha" type="matrix" values="0 0 0 0 0 0 0 0 0 0 0 0 0 0 0 0 0 0 127 0" result="hardAlpha"/>
<feOffset/>
<feGaussianBlur stdDeviation="11.5"/>
<feComposite in2="hardAlpha" operator="out"/>
<feColorMatrix type="matrix" values="0 0 0 0 1 0 0 0 0 0.360784 0 0 0 0 0.552941 0 0 0 1 0"/>
<feBlend mode="normal" in2="BackgroundImageFix" result="effect1_dropShadow_1800_1691"/>
<feBlend mode="normal" in="SourceGraphic" in2="effect1_dropShadow_1800_1691" result="shape"/>
</filter>
<filter id="filter5_d_1800_1691" x="70" y="20" width="40" height="40" filterUnits="userSpaceOnUse" color-interpolation-filters="sRGB">
<feFlood flood-opacity="0" result="BackgroundImageFix"/>
<feColorMatrix in="SourceAlpha" type="matrix" values="0 0 0 0 0 0 0 0 0 0 0 0 0 0 0 0 0 0 127 0" result="hardAlpha"/>
<feMorphology radius="4" operator="dilate" in="SourceAlpha" result="effect1_dropShadow_1800_1691"/>
<feOffset/>
<feGaussianBlur stdDeviation="7"/>
<feComposite in2="hardAlpha" operator="out"/>
<feColorMatrix type="matrix" values="0 0 0 0 0.995129 0 0 0 0 0.779167 0 0 0 0 1 0 0 0 1 0"/>
<feBlend mode="normal" in2="BackgroundImageFix" result="effect1_dropShadow_1800_1691"/>
<feBlend mode="normal" in="SourceGraphic" in2="effect1_dropShadow_1800_1691" result="shape"/>
</filter>
<filter id="filter6_d_1800_1691" x="0" y="0" width="48" height="86" filterUnits="userSpaceOnUse" color-interpolation-filters="sRGB">
<feFlood flood-opacity="0" result="BackgroundImageFix"/>
<feColorMatrix in="SourceAlpha" type="matrix" values="0 0 0 0 0 0 0 0 0 0 0 0 0 0 0 0 0 0 127 0" result="hardAlpha"/>
<feOffset/>
<feGaussianBlur stdDeviation="11.5"/>
<feComposite in2="hardAlpha" operator="out"/>
<feColorMatrix type="matrix" values="0 0 0 0 1 0 0 0 0 0.360784 0 0 0 0 0.552941 0 0 0 1 0"/>
<feBlend mode="normal" in2="BackgroundImageFix" result="effect1_dropShadow_1800_1691"/>
<feBlend mode="normal" in="SourceGraphic" in2="effect1_dropShadow_1800_1691" result="shape"/>
</filter>
<filter id="filter7_d_1800_1691" x="4" y="43" width="40" height="40" filterUnits="userSpaceOnUse" color-interpolation-filters="sRGB">
<feFlood flood-opacity="0" result="BackgroundImageFix"/>
<feColorMatrix in="SourceAlpha" type="matrix" values="0 0 0 0 0 0 0 0 0 0 0 0 0 0 0 0 0 0 127 0" result="hardAlpha"/>
<feMorphology radius="4" operator="dilate" in="SourceAlpha" result="effect1_dropShadow_1800_1691"/>
<feOffset/>
<feGaussianBlur stdDeviation="7"/>
<feComposite in2="hardAlpha" operator="out"/>
<feColorMatrix type="matrix" values="0 0 0 0 0.995129 0 0 0 0 0.779167 0 0 0 0 1 0 0 0 1 0"/>
<feBlend mode="normal" in2="BackgroundImageFix" result="effect1_dropShadow_1800_1691"/>
<feBlend mode="normal" in="SourceGraphic" in2="effect1_dropShadow_1800_1691" result="shape"/>
</filter>
<linearGradient id="paint0_linear_1800_1691" x1="67.5" y1="4" x2="67.5" y2="91" gradientUnits="userSpaceOnUse">
<stop stop-color="#E813EC" stop-opacity="0.7"/>
<stop offset="1" stop-color="#28063D" stop-opacity="0.21"/>
</linearGradient>
<linearGradient id="paint1_linear_1800_1691" x1="68" y1="27" x2="68" y2="67.0005" gradientUnits="userSpaceOnUse">
<stop stop-color="#B78AFF"/>
<stop offset="0.385417" stop-color="#FFBDF8"/>
<stop offset="1" stop-color="#4B006F"/>
</linearGradient>
<linearGradient id="paint2_linear_1800_1691" x1="68" y1="27" x2="68" y2="67.0005" gradientUnits="userSpaceOnUse">
<stop stop-color="#F9B1FF"/>
<stop offset="1" stop-color="#BCB1FF"/>
</linearGradient>
<linearGradient id="paint3_linear_1800_1691" x1="103.5" y1="40" x2="103.5" y2="127" gradientUnits="userSpaceOnUse">
<stop stop-color="#9600F2" stop-opacity="0.7"/>
<stop offset="1" stop-color="#28063D" stop-opacity="0.21"/>
</linearGradient>
<linearGradient id="paint4_linear_1800_1691" x1="104" y1="63" x2="104" y2="103" gradientUnits="userSpaceOnUse">
<stop stop-color="#B78AFF"/>
<stop offset="0.385417" stop-color="#FFBDF8"/>
<stop offset="1" stop-color="#4B006F"/>
</linearGradient>
<linearGradient id="paint5_linear_1800_1691" x1="104" y1="63" x2="104" y2="103" gradientUnits="userSpaceOnUse">
<stop stop-color="#F9B1FF"/>
<stop offset="1" stop-color="#BCB1FF"/>
</linearGradient>
<linearGradient id="paint6_linear_1800_1691" x1="160" y1="130.002" x2="119.507" y2="130.002" gradientUnits="userSpaceOnUse">
<stop stop-color="#FFB1CE" stop-opacity="0"/>
<stop offset="1" stop-color="#FFB1CE"/>
</linearGradient>
<linearGradient id="paint7_linear_1800_1691" x1="130" y1="41.0017" x2="89.5068" y2="41.0017" gradientUnits="userSpaceOnUse">
<stop stop-color="#FFB1CE" stop-opacity="0"/>
<stop offset="1" stop-color="#FFB1CE"/>
</linearGradient>
<linearGradient id="paint8_linear_1800_1691" x1="63" y1="65.0017" x2="22.5068" y2="65.0017" gradientUnits="userSpaceOnUse">
<stop stop-color="#FFB1CE" stop-opacity="0"/>
<stop offset="1" stop-color="#FFB1CE"/>
</linearGradient>
</defs>
</svg>
