<svg width="144" height="20" viewBox="0 0 144 20" fill="none" xmlns="http://www.w3.org/2000/svg">
<path fill-rule="evenodd" clip-rule="evenodd" d="M0 1C0 0.447715 0.447715 0 1 0H19C19.5523 0 20 0.447715 20 1V10C20 15.5228 15.5228 20 10 20C4.47715 20 0 15.5228 0 10V1ZM2 2H9V5.5C9 8.53757 11.4624 11 14.5 11C15.8296 11 17.0491 10.5282 18 9.74284V10C18 14.4183 14.4183 18 10 18C5.58172 18 2 14.4183 2 10V2ZM18 2V5.5C18 7.433 16.433 9 14.5 9C12.567 9 11 7.433 11 5.5V2H18Z" fill="black"/>
<path d="M51.305 5.8H54.025V3H51.305V5.8Z" fill="black"/>
<path d="M53.885 17.46V7.38H51.425V17.46H53.885Z" fill="black"/>
<path d="M42.7225 11.96V17.46H40.2625V7.38H42.7225V8.94C43.2825 7.84 44.4225 7.22 45.8625 7.22C48.1425 7.22 49.6225 8.86 49.6225 11.22V17.46H47.1625V11.74C47.1625 10.36 46.3225 9.4 45.0625 9.4C43.6825 9.4 42.7225 10.48 42.7225 11.96Z" fill="black"/>
<path d="M36 12.88V7.38H38.46V17.46H36V15.9C35.44 17 34.3 17.62 32.86 17.62C30.6 17.62 29.12 15.98 29.12 13.62V7.38H31.56V13.1C31.56 14.48 32.42 15.44 33.66 15.44C35.04 15.44 36 14.36 36 12.88Z" fill="black"/>
<path d="M59.393 9.44V17.46H56.933V9.44H54.953V7.38H56.933V6.44C56.933 4.4 58.353 3.06 60.533 3.06H62.333V5.14H60.813C59.953 5.14 59.393 5.68 59.393 6.56V7.38H62.333V9.44H59.393Z" fill="black"/>
<path fill-rule="evenodd" clip-rule="evenodd" d="M67.6502 17.62C70.7102 17.62 72.9102 15.42 72.9102 12.42C72.9102 9.42 70.7102 7.22 67.6502 7.22C64.5702 7.22 62.3702 9.42 62.3702 12.42C62.3702 15.42 64.5702 17.62 67.6502 17.62ZM67.6502 15.5C65.9702 15.5 64.8502 14.24 64.8502 12.42C64.8502 10.6 65.9702 9.34 67.6502 9.34C69.3102 9.34 70.4302 10.6 70.4302 12.42C70.4302 14.24 69.3102 15.5 67.6502 15.5Z" fill="black"/>
<path d="M79.2103 7.38H80.3903V9.44H78.8103C77.2503 9.44 76.6303 10.78 76.6303 12.7V17.46H74.1703V7.38H76.6303V9.16C77.1303 7.88 77.9103 7.38 79.2103 7.38Z" fill="black"/>
<path d="M83.867 17.46V11.68C83.867 10.26 84.687 9.32 85.987 9.32C87.167 9.32 87.907 10.26 87.907 11.68V17.46H90.347V11.68C90.347 10.26 91.167 9.32 92.487 9.32C93.667 9.32 94.407 10.26 94.407 11.68V17.46H96.847V10.94C96.847 8.8 95.447 7.22 93.267 7.22C91.667 7.22 90.387 8.1 89.927 9.14C89.487 7.9 88.387 7.22 86.787 7.22C85.367 7.22 84.367 7.94 83.867 8.96V7.38H81.407V17.46H83.867Z" fill="black"/>
<path d="M101.244 5.8H98.5237V3H101.244V5.8Z" fill="black"/>
<path d="M98.6437 7.38H101.104V17.46H98.6437V7.38Z" fill="black"/>
<path d="M107.492 17.62C110.092 17.62 112.052 16.04 112.372 13.84H109.892C109.652 14.84 108.752 15.5 107.592 15.5C105.872 15.5 104.932 14.18 104.932 12.42C104.932 10.66 105.852 9.34 107.552 9.34C108.712 9.34 109.692 10.06 109.872 11.06H112.312C112.092 8.74 110.032 7.22 107.492 7.22C104.352 7.22 102.372 9.54 102.372 12.42C102.372 15.3 104.352 17.62 107.492 17.62Z" fill="black"/>
<path fill-rule="evenodd" clip-rule="evenodd" d="M123.547 12.42C123.547 15.42 121.347 17.62 118.287 17.62C115.207 17.62 113.007 15.42 113.007 12.42C113.007 9.42 115.207 7.22 118.287 7.22C121.347 7.22 123.547 9.42 123.547 12.42ZM115.487 12.42C115.487 14.24 116.607 15.5 118.287 15.5C119.947 15.5 121.067 14.24 121.067 12.42C121.067 10.6 119.947 9.34 118.287 9.34C116.607 9.34 115.487 10.6 115.487 12.42Z" fill="black"/>
<path d="M127.267 17.46V11.96C127.267 10.48 128.227 9.4 129.607 9.4C130.867 9.4 131.707 10.36 131.707 11.74V17.46H134.167V11.22C134.167 8.86 132.687 7.22 130.407 7.22C128.967 7.22 127.827 7.84 127.267 8.94V7.38H124.807V17.46H127.267Z" fill="black"/>
<path d="M143.51 14.48C143.51 16.38 141.97 17.62 139.61 17.62C137.17 17.62 135.55 16.26 135.43 14.1H137.67C137.77 15.06 138.51 15.66 139.61 15.66C140.57 15.66 141.21 15.18 141.21 14.58C141.21 13.6384 140.234 13.4708 139.104 13.2764C137.544 13.0083 135.69 12.6894 135.69 10.22C135.69 8.46 137.23 7.22 139.31 7.22C141.67 7.22 143.29 8.52 143.39 10.48H141.15C141.01 9.54 140.15 9.06 139.37 9.06C138.49 9.06 137.91 9.46 137.91 10.14C137.91 11.0311 138.845 11.157 139.952 11.3057C141.552 11.5209 143.51 11.784 143.51 14.48Z" fill="black"/>
</svg>
