<svg xmlns="http://www.w3.org/2000/svg" width="24" height="24" fill="none" viewBox="0 0 24 24">
  <path fill="currentColor" fill-rule="evenodd" d="M19 22H5a3 3 0 0 1-3-3V5a3 3 0 0 1 3-3h3.535a3 3 0 0 1 2.121.879L12.52 4.74A5.489 5.489 0 0 0 10.5 9v3a2.5 2.5 0 0 0 5 0V9a.5.5 0 0 1 .5-.5h.278l4.843 4.844a3 3 0 0 1 .879 2.12V19a3 3 0 0 1-3 3Z" clip-rule="evenodd"/>
  <path stroke="currentColor" stroke-linecap="round" stroke-linejoin="round" stroke-width="2" d="m19 3 3 3m0 0-3 3m3-3h-6a3 3 0 0 0-3 3v3"/>
</svg>
