<svg width="24" height="24" viewBox="0 0 24 24" fill="none" xmlns="http://www.w3.org/2000/svg">
<path d="M16.9498 12.7071L19.0711 10.5857C20.6332 9.02365 20.6332 6.49099 19.0711 4.92889V4.92889C17.509 3.36679 14.9763 3.36679 13.4142 4.92889L11.2929 7.05021" stroke="black" stroke-width="2" stroke-linecap="round"/>
<path d="M7.05034 11.2928L4.92902 13.4141C3.36692 14.9762 3.36692 17.5089 4.92902 19.071V19.071C6.49112 20.6331 9.02378 20.6331 10.5859 19.071L12.7072 16.9497" stroke="black" stroke-width="2" stroke-linecap="round"/>
<path d="M9.17163 3.51477V4.92898" stroke="black" stroke-width="2" stroke-linecap="round"/>
<path d="M4.92896 9.17151H3.5147" stroke="black" stroke-width="2" stroke-linecap="round"/>
<path d="M5.63611 5.63599L6.63611 6.63599" stroke="black" stroke-width="2" stroke-linecap="round"/>
<path d="M14.8284 20.4852L14.8284 19.071" stroke="black" stroke-width="2" stroke-linecap="round"/>
<path d="M19.071 14.8285L20.4853 14.8285" stroke="black" stroke-width="2" stroke-linecap="round"/>
<path d="M18.3639 18.364L17.3639 17.364" stroke="black" stroke-width="2" stroke-linecap="round"/>
</svg>
