<svg width="24" height="24" viewBox="0 0 24 24" fill="none" xmlns="http://www.w3.org/2000/svg">
<path d="M21 12L21.6934 12.7206C21.8893 12.5321 22 12.2719 22 12C22 11.7281 21.8893 11.4679 21.6934 11.2794L21 12ZM12 20.6603H11C11 21.0612 11.2395 21.4234 11.6084 21.5804C11.9774 21.7374 12.4045 21.6588 12.6934 21.3808L12 20.6603ZM12 3.33975L12.6934 2.61917C12.4045 2.34115 11.9774 2.26259 11.6084 2.41959C11.2395 2.57659 11 2.93878 11 3.33975H12ZM12 9.06192L11.8763 10.0542C12.1608 10.0897 12.447 10.0013 12.6619 9.8115C12.8769 9.62168 13 9.3487 13 9.06192H12ZM3.19227 18.7513L2.21631 18.9693C2.30012 19.3446 2.59171 19.6385 2.96631 19.7254C3.34091 19.8123 3.73215 19.6767 3.97262 19.3766L3.19227 18.7513ZM12 15.0494H13C13 14.5354 12.6103 14.1051 12.0988 14.0543L12 15.0494ZM20.3066 11.2794L11.3066 19.9397L12.6934 21.3808L21.6934 12.7206L20.3066 11.2794ZM11.3066 4.06032L20.3066 12.7206L21.6934 11.2794L12.6934 2.61917L11.3066 4.06032ZM13 9.06192V3.33975H11V9.06192H13ZM12.1237 8.06961C11.7552 8.02365 11.3801 8.00003 11 8.00003V10C11.2972 10 11.5896 10.0185 11.8763 10.0542L12.1237 8.06961ZM11 8.00003C6.02944 8.00003 2 12.0295 2 17H4C4 13.134 7.13401 10 11 10V8.00003ZM2 17C2 17.6754 2.07457 18.3345 2.21631 18.9693L4.16823 18.5333C4.05823 18.0408 4 17.5278 4 17H2ZM3.97262 19.3766C5.62362 17.3164 8.15774 16 11 16V14C7.52513 14 4.42617 15.6124 2.41192 18.126L3.97262 19.3766ZM11 16C11.3045 16 11.6051 16.0151 11.9012 16.0445L12.0988 14.0543C11.7371 14.0184 11.3705 14 11 14V16ZM13 20.6603V15.0494H11V20.6603H13Z" fill="black"/>
</svg>
