<svg width="24" height="24" viewBox="0 0 24 24" fill="none" xmlns="http://www.w3.org/2000/svg">
<path d="M21 12L21.6934 12.7206V11.2794L21 12ZM12 20.6602H11L12.6934 21.3808L12 20.6602ZM12 3.33972L12.6934 2.61915L11 3.33972H12ZM12 9.0619L11.8763 10.0542L13 9.0619H12ZM3.19227 18.7513L2.21631 18.9692L3.97262 19.3766L3.19227 18.7513ZM12 15.0494H13L12.0988 14.0543L12 15.0494ZM20.3066 11.2794L11.3066 19.9397L12.6934 21.3808L21.6934 12.7206L20.3066 11.2794ZM11.3066 4.0603L20.3066 12.7206L21.6934 11.2794L12.6934 2.61915L11.3066 4.0603ZM13 9.0619V3.33972H11V9.0619H13ZM12.1237 8.06958C11.7552 8.02363 11.3801 8 11 8V10C11.2972 10 11.5896 10.0185 11.8763 10.0542L12.1237 8.06958ZM11 8C6.02944 8 2 12.0294 2 17H4C4 13.134 7.13401 10 11 10V8ZM2 17C2 17.6754 2.07457 18.3345 2.21631 18.9692L4.16823 18.5333C4.05823 18.0408 4 17.5278 4 17H2ZM3.97262 19.3766C5.62362 17.3164 8.15774 16 11 16V14C7.52513 14 4.42617 15.6124 2.41192 18.1259L3.97262 19.3766ZM11 16C11.3045 16 11.6051 16.0151 11.9012 16.0445L12.0988 14.0543C11.7371 14.0184 11.3705 14 11 14V16ZM13 20.6602V15.0494H11V20.6602H13Z" fill="black"/>
</svg>
