<svg width="24" height="24" viewBox="0 0 24 24" fill="none" xmlns="http://www.w3.org/2000/svg">
<path d="M15 16L18 16C20.2091 16 22 14.2091 22 12V12C22 9.79086 20.2091 8 18 8L15 8" stroke="black" stroke-width="2" stroke-linecap="round"/>
<path d="M9 8L6 8C3.79086 8 2 9.79086 2 12V12C2 14.2091 3.79086 16 6 16L9 16" stroke="black" stroke-width="2" stroke-linecap="round"/>
<path d="M16 4L15 5" stroke="black" stroke-width="2" stroke-linecap="round"/>
<path d="M9 5L7.99997 3.99997" stroke="black" stroke-width="2" stroke-linecap="round"/>
<path d="M12 3V4.41421" stroke="black" stroke-width="2" stroke-linecap="round"/>
<path d="M8 20L9 19" stroke="black" stroke-width="2" stroke-linecap="round"/>
<path d="M15 19L16 20" stroke="black" stroke-width="2" stroke-linecap="round"/>
<path d="M12 21L12 19.5858" stroke="black" stroke-width="2" stroke-linecap="round"/>
</svg>
