<svg width="24" height="24" viewBox="0 0 24 24" fill="none" xmlns="http://www.w3.org/2000/svg">
<path d="M20.3512 11.3133L21.0781 10.6265L21.0781 10.6265L20.3512 11.3133ZM20.3512 12.6867L21.0781 13.3735L21.0781 13.3735L20.3512 12.6867ZM13.7269 4.3016L14.4538 3.61486V3.61486L13.7269 4.3016ZM12 9.06192L11.8763 10.0542C12.1608 10.0897 12.447 10.0013 12.6619 9.8115C12.8769 9.62167 13 9.3487 13 9.06192H12ZM3.19227 18.7513L2.21631 18.9692C2.30012 19.3445 2.59171 19.6385 2.96631 19.7254C3.34091 19.8123 3.73215 19.6767 3.97262 19.3766L3.19227 18.7513ZM12 15.0494H13C13 14.5354 12.6103 14.1051 12.0988 14.0543L12 15.0494ZM13.7269 19.6984L13 19.0117L13.7269 19.6984ZM19.6243 12V12L21.0781 13.3735C21.8064 12.6026 21.8064 11.3974 21.0781 10.6265L19.6243 12ZM13 4.98834L19.6243 12L21.0781 10.6265L14.4538 3.61486L13 4.98834ZM13 4.98834V4.98834L14.4538 3.61486C13.2113 2.29965 11 3.17902 11 4.98834H13ZM13 9.06192V4.98834H11V9.06192H13ZM12.1237 8.0696C11.7552 8.02365 11.3801 8.00002 11 8.00002V10C11.2972 10 11.5896 10.0185 11.8763 10.0542L12.1237 8.0696ZM11 8.00002C6.02944 8.00002 2 12.0295 2 17H4C4 13.134 7.13401 10 11 10V8.00002ZM2 17C2 17.6754 2.07457 18.3345 2.21631 18.9692L4.16823 18.5333C4.05823 18.0408 4 17.5278 4 17H2ZM3.97262 19.3766C5.62362 17.3164 8.15774 16 11 16V14C7.52513 14 4.42617 15.6124 2.41192 18.126L3.97262 19.3766ZM11 16C11.3045 16 11.6051 16.0151 11.9012 16.0445L12.0988 14.0543C11.7371 14.0184 11.3705 14 11 14V16ZM13 19.0117V15.0494H11V19.0117H13ZM13 19.0117H11C11 20.821 13.2113 21.7003 14.4538 20.3851L13 19.0117ZM19.6243 12L13 19.0117L14.4538 20.3851L21.0781 13.3735L19.6243 12Z" fill="black"/>
</svg>
