<svg xmlns="http://www.w3.org/2000/svg" width="24" height="24" fill="none" viewBox="0 0 24 24">
  <path fill="#000" d="m20.351 11.313.727-.687-.727.687Zm0 1.374.727.687-.727-.687Zm-6.624-8.385.727-.687-.727.687ZM12 9.062l-.124.992A1 1 0 0 0 13 9.062h-1Zm-8.808 9.69-.976.217a1 1 0 0 0 1.757.408l-.78-.626ZM12 15.048h1a1 1 0 0 0-.901-.995L12 15.05Zm1.727 4.65L13 19.011l.727.686ZM19.624 12l1.454 1.373a2 2 0 0 0 0-2.746L19.624 12ZM13 4.988 19.624 12l1.454-1.373-6.624-7.012L13 4.988Zm0 0 1.454-1.373C13.21 2.3 11 3.179 11 4.988h2Zm0 4.074V4.988h-2v4.074h2Zm-.876-.992A9.08 9.08 0 0 0 11 8v2c.297 0 .59.018.876.054l.248-1.984ZM11 8a9 9 0 0 0-9 9h2a7 7 0 0 1 7-7V8Zm-9 9c0 .675.075 1.334.216 1.97l1.952-.437A7.027 7.027 0 0 1 4 17H2Zm1.973 2.377A8.981 8.981 0 0 1 11 16v-2a10.981 10.981 0 0 0-8.588 4.126l1.56 1.25ZM11 16c.305 0 .605.015.901.044l.198-1.99A11.123 11.123 0 0 0 11 14v2Zm2 3.012v-3.963h-2v3.963h2Zm0 0h-2c0 1.809 2.211 2.688 3.454 1.373L13 19.012ZM19.624 12 13 19.012l1.454 1.373 6.624-7.012L19.624 12Z"/>
</svg>
