<svg width="24" height="24" viewBox="0 0 24 24" fill="none" xmlns="http://www.w3.org/2000/svg">
<path fill-rule="evenodd" clip-rule="evenodd" d="M14.1211 6.34334L10.6565 2.87868C10.0938 2.31607 9.33079 2 8.53514 2H5C3.34315 2 2 3.34315 2 5V19C2 20.6569 3.34315 22 5 22H19C20.6569 22 22 20.6569 22 19V15.4649C22 14.6692 21.6839 13.9062 21.1213 13.3435L17.6567 9.87888L13.7678 13.7678C12.7915 14.7441 11.2085 14.7441 10.2322 13.7678C9.25592 12.7915 9.25592 11.2085 10.2322 10.2322L14.1211 6.34334Z" fill="black"/>
<path d="M21 3L12 12" stroke="black" stroke-width="2" stroke-linecap="round" stroke-linejoin="round"/>
<path d="M21 9L21 3H15" stroke="black" stroke-width="2" stroke-linecap="round" stroke-linejoin="round"/>
</svg>
