<svg width="24" height="24" viewBox="0 0 24 24" fill="none" xmlns="http://www.w3.org/2000/svg">
<path fill-rule="evenodd" clip-rule="evenodd" d="M12.6934 2.61917C12.4045 2.34115 11.9774 2.26259 11.6084 2.41959C11.2395 2.57659 11 2.93878 11 3.33975L11 8.00003C6.02944 8.00003 2 12.0295 2 17C2 17.6754 2.07457 18.3346 2.21631 18.9693C2.30012 19.3446 2.59171 19.6385 2.96631 19.7254C3.34091 19.8123 3.73215 19.6767 3.97262 19.3766C5.62362 17.3164 8.15774 16 11 16V20.6603C11 21.0612 11.2395 21.4234 11.6084 21.5804C11.9774 21.7374 12.4045 21.6589 12.6934 21.3808L21.6934 12.7206C21.8893 12.5321 22 12.2719 22 12C22 11.7281 21.8893 11.4679 21.6934 11.2794L12.6934 2.61917Z" fill="black"/>
</svg>
