<svg width="24" height="24" viewBox="0 0 24 24" fill="none" xmlns="http://www.w3.org/2000/svg">
<path fill-rule="evenodd" clip-rule="evenodd" d="M19 22H5C3.34315 22 2 20.6569 2 19V5C2 3.34315 3.34315 2 5 2H8.53514C9.33079 2 10.0938 2.31607 10.6565 2.87868L12.5192 4.7414C11.2866 5.75002 10.5 7.28314 10.5 9V12C10.5 13.3807 11.6193 14.5 13 14.5C14.3807 14.5 15.5 13.3807 15.5 12V9C15.5 8.72386 15.7239 8.5 16 8.5H16.2778L21.1213 13.3435C21.6839 13.9062 22 14.6692 22 15.4649V19C22 20.6569 20.6569 22 19 22Z" fill="black"/>
<path d="M22 6H16C14.3431 6 13 7.34315 13 9V12" stroke="black" stroke-width="2" stroke-linecap="round" stroke-linejoin="round"/>
<path d="M19 3L22 6L19 9" stroke="black" stroke-width="2" stroke-linecap="round" stroke-linejoin="round"/>
</svg>
